  0
SECTION
  2
HEADER
  9
$ACADVER
  1
AC1027
  9
$ACADMAINTVER
 70
105
  9
$DWGCODEPAGE
  3
ANSI_1252
  9
$LASTSAVEDBY
  1
ezdxf
  9
$REQUIREDVERSIONS
160
0
  9
$INSBASE
 10
0.0
 20
0.0
 30
0.0
  9
$EXTMIN
 10
1e+20
 20
1e+20
 30
1e+20
  9
$EXTMAX
 10
-1e+20
 20
-1e+20
 30
-1e+20
  9
$LIMMIN
 10
0.0
 20
0.0
  9
$LIMMAX
 10
420.0
 20
297.0
  9
$ORTHOMODE
 70
0
  9
$REGENMODE
 70
1
  9
$FILLMODE
 70
1
  9
$QTEXTMODE
 70
0
  9
$MIRRTEXT
 70
1
  9
$LTSCALE
 40
1.0
  9
$ATTMODE
 70
1
  9
$TEXTSIZE
 40
2.5
  9
$TRACEWID
 40
1.0
  9
$TEXTSTYLE
  7
Standard
  9
$CLAYER
  8
0
  9
$CELTYPE
  6
ByLayer
  9
$CECOLOR
 62
256
  9
$CELTSCALE
 40
1.0
  9
$DISPSILH
 70
0
  9
$DIMSCALE
 40
1.0
  9
$DIMASZ
 40
2.5
  9
$DIMEXO
 40
0.625
  9
$DIMDLI
 40
3.75
  9
$DIMRND
 40
0.0
  9
$DIMDLE
 40
0.0
  9
$DIMEXE
 40
1.25
  9
$DIMTP
 40
0.0
  9
$DIMTM
 40
0.0
  9
$DIMTXT
 40
2.5
  9
$DIMCEN
 40
2.5
  9
$DIMTSZ
 40
0.0
  9
$DIMTOL
 70
0
  9
$DIMLIM
 70
0
  9
$DIMTIH
 70
0
  9
$DIMTOH
 70
0
  9
$DIMSE1
 70
0
  9
$DIMSE2
 70
0
  9
$DIMTAD
 70
1
  9
$DIMZIN
 70
8
  9
$DIMBLK
  1

  9
$DIMASO
 70
1
  9
$DIMSHO
 70
1
  9
$DIMPOST
  1

  9
$DIMAPOST
  1

  9
$DIMALT
 70
0
  9
$DIMALTD
 70
3
  9
$DIMALTF
 40
0.03937007874
  9
$DIMLFAC
 40
1.0
  9
$DIMTOFL
 70
1
  9
$DIMTVP
 40
0.0
  9
$DIMTIX
 70
0
  9
$DIMSOXD
 70
0
  9
$DIMSAH
 70
0
  9
$DIMBLK1
  1

  9
$DIMBLK2
  1

  9
$DIMSTYLE
  2
ISO-25
  9
$DIMCLRD
 70
0
  9
$DIMCLRE
 70
0
  9
$DIMCLRT
 70
0
  9
$DIMTFAC
 40
1.0
  9
$DIMGAP
 40
0.625
  9
$DIMJUST
 70
0
  9
$DIMSD1
 70
0
  9
$DIMSD2
 70
0
  9
$DIMTOLJ
 70
0
  9
$DIMTZIN
 70
8
  9
$DIMALTZ
 70
0
  9
$DIMALTTZ
 70
0
  9
$DIMUPT
 70
0
  9
$DIMDEC
 70
2
  9
$DIMTDEC
 70
2
  9
$DIMALTU
 70
2
  9
$DIMALTTD
 70
3
  9
$DIMTXSTY
  7
Standard
  9
$DIMAUNIT
 70
0
  9
$DIMADEC
 70
0
  9
$DIMALTRND
 40
0.0
  9
$DIMAZIN
 70
0
  9
$DIMDSEP
 70
44
  9
$DIMATFIT
 70
3
  9
$DIMFRAC
 70
0
  9
$DIMLDRBLK
  1

  9
$DIMLUNIT
 70
2
  9
$DIMLWD
 70
-2
  9
$DIMLWE
 70
-2
  9
$DIMTMOVE
 70
0
  9
$DIMFXL
 40
1.0
  9
$DIMFXLON
 70
0
  9
$DIMJOGANG
 40
0.785398163397
  9
$DIMTFILL
 70
0
  9
$DIMTFILLCLR
 70
0
  9
$DIMARCSYM
 70
0
  9
$DIMLTYPE
  6

  9
$DIMLTEX1
  6

  9
$DIMLTEX2
  6

  9
$DIMTXTDIRECTION
 70
0
  9
$LUNITS
 70
2
  9
$LUPREC
 70
4
  9
$SKETCHINC
 40
1.0
  9
$FILLETRAD
 40
10.0
  9
$AUNITS
 70
0
  9
$AUPREC
 70
2
  9
$MENU
  1
.
  9
$ELEVATION
 40
0.0
  9
$PELEVATION
 40
0.0
  9
$THICKNESS
 40
0.0
  9
$LIMCHECK
 70
0
  9
$CHAMFERA
 40
0.0
  9
$CHAMFERB
 40
0.0
  9
$CHAMFERC
 40
0.0
  9
$CHAMFERD
 40
0.0
  9
$SKPOLY
 70
0
  9
$TDCREATE
 40
2459561.834791667
  9
$TDUCREATE
 40
2458532.153996898
  9
$TDUPDATE
 40
2459561.834791667
  9
$TDUUPDATE
 40
2458532.1544311
  9
$TDINDWG
 40
0.0
  9
$TDUSRTIMER
 40
0.0
  9
$USRTIMER
 70
1
  9
$ANGBASE
 50
0.0
  9
$ANGDIR
 70
0
  9
$PDMODE
 70
0
  9
$PDSIZE
 40
0.0
  9
$PLINEWID
 40
0.0
  9
$SPLFRAME
 70
0
  9
$SPLINETYPE
 70
6
  9
$SPLINESEGS
 70
8
  9
$HANDSEED
  5
1C8
  9
$SURFTAB1
 70
6
  9
$SURFTAB2
 70
6
  9
$SURFTYPE
 70
6
  9
$SURFU
 70
6
  9
$SURFV
 70
6
  9
$UCSBASE
  2

  9
$UCSNAME
  2

  9
$UCSORG
 10
0.0
 20
0.0
 30
0.0
  9
$UCSXDIR
 10
1.0
 20
0.0
 30
0.0
  9
$UCSYDIR
 10
0.0
 20
1.0
 30
0.0
  9
$UCSORTHOREF
  2

  9
$UCSORTHOVIEW
 70
0
  9
$UCSORGTOP
 10
0.0
 20
0.0
 30
0.0
  9
$UCSORGBOTTOM
 10
0.0
 20
0.0
 30
0.0
  9
$UCSORGLEFT
 10
0.0
 20
0.0
 30
0.0
  9
$UCSORGRIGHT
 10
0.0
 20
0.0
 30
0.0
  9
$UCSORGFRONT
 10
0.0
 20
0.0
 30
0.0
  9
$UCSORGBACK
 10
0.0
 20
0.0
 30
0.0
  9
$PUCSBASE
  2

  9
$PUCSNAME
  2

  9
$PUCSORG
 10
0.0
 20
0.0
 30
0.0
  9
$PUCSXDIR
 10
1.0
 20
0.0
 30
0.0
  9
$PUCSYDIR
 10
0.0
 20
1.0
 30
0.0
  9
$PUCSORTHOREF
  2

  9
$PUCSORTHOVIEW
 70
0
  9
$PUCSORGTOP
 10
0.0
 20
0.0
 30
0.0
  9
$PUCSORGBOTTOM
 10
0.0
 20
0.0
 30
0.0
  9
$PUCSORGLEFT
 10
0.0
 20
0.0
 30
0.0
  9
$PUCSORGRIGHT
 10
0.0
 20
0.0
 30
0.0
  9
$PUCSORGFRONT
 10
0.0
 20
0.0
 30
0.0
  9
$PUCSORGBACK
 10
0.0
 20
0.0
 30
0.0
  9
$USERI1
 70
0
  9
$USERI2
 70
0
  9
$USERI3
 70
0
  9
$USERI4
 70
0
  9
$USERI5
 70
0
  9
$USERR1
 40
0.0
  9
$USERR2
 40
0.0
  9
$USERR3
 40
0.0
  9
$USERR4
 40
0.0
  9
$USERR5
 40
0.0
  9
$WORLDVIEW
 70
1
  9
$SHADEDGE
 70
3
  9
$SHADEDIF
 70
70
  9
$TILEMODE
 70
1
  9
$MAXACTVP
 70
64
  9
$PINSBASE
 10
0.0
 20
0.0
 30
0.0
  9
$PLIMCHECK
 70
0
  9
$PEXTMIN
 10
1e+20
 20
1e+20
 30
1e+20
  9
$PEXTMAX
 10
-1e+20
 20
-1e+20
 30
-1e+20
  9
$PLIMMIN
 10
0.0
 20
0.0
  9
$PLIMMAX
 10
420.0
 20
297.0
  9
$UNITMODE
 70
0
  9
$VISRETAIN
 70
1
  9
$PLINEGEN
 70
0
  9
$PSLTSCALE
 70
1
  9
$TREEDEPTH
 70
3020
  9
$CMLSTYLE
  2
Standard
  9
$CMLJUST
 70
0
  9
$CMLSCALE
 40
20.0
  9
$PROXYGRAPHICS
 70
1
  9
$MEASUREMENT
 70
1
  9
$CELWEIGHT
370
-1
  9
$ENDCAPS
280
0
  9
$JOINSTYLE
280
0
  9
$LWDISPLAY
290
0
  9
$INSUNITS
 70
6
  9
$HYPERLINKBASE
  1

  9
$STYLESHEET
  1

  9
$XEDIT
290
1
  9
$CEPSNTYPE
380
0
  9
$PSTYLEMODE
290
1
  9
$FINGERPRINTGUID
  2
{1E3D5EA5-4244-42DD-BCBF-D01EE9C71270}
  9
$VERSIONGUID
  2
{37900F64-9AFD-42F6-9A6F-59B66FB7460A}
  9
$EXTNAMES
290
1
  9
$PSVPSCALE
 40
0.0
  9
$OLESTARTUP
290
0
  9
$SORTENTS
280
127
  9
$INDEXCTL
280
0
  9
$HIDETEXT
280
1
  9
$XCLIPFRAME
280
0
  9
$HALOGAP
280
0
  9
$OBSCOLOR
 70
257
  9
$OBSLTYPE
280
0
  9
$INTERSECTIONDISPLAY
280
0
  9
$INTERSECTIONCOLOR
 70
257
  9
$DIMASSOC
280
2
  9
$PROJECTNAME
  1

  9
$CAMERADISPLAY
290
0
  9
$LENSLENGTH
 40
50.0
  9
$CAMERAHEIGHT
 40
0.0
  9
$STEPSPERSEC
 40
24.0
  9
$STEPSIZE
 40
100.0
  9
$3DDWFPREC
 40
2.0
  9
$PSOLWIDTH
 40
0.005
  9
$PSOLHEIGHT
 40
0.08
  9
$LOFTANG1
 40
1.570796326795
  9
$LOFTANG2
 40
1.570796326795
  9
$LOFTMAG1
 40
0.0
  9
$LOFTMAG2
 40
0.0
  9
$LOFTPARAM
 70
7
  9
$LOFTNORMALS
280
1
  9
$LATITUDE
 40
37.795
  9
$LONGITUDE
 40
-122.394
  9
$NORTHDIRECTION
 40
0.0
  9
$TIMEZONE
 70
-8000
  9
$LIGHTGLYPHDISPLAY
280
1
  9
$TILEMODELIGHTSYNCH
280
1
  9
$CMATERIAL
347
20
  9
$SOLIDHIST
280
0
  9
$SHOWHIST
280
1
  9
$DWFFRAME
280
2
  9
$DGNFRAME
280
2
  9
$REALWORLDSCALE
290
1
  9
$INTERFERECOLOR
 62
256
  9
$CSHADOW
280
0
  9
$SHADOWPLANELOCATION
 40
0.0
  0
ENDSEC
  0
SECTION
  2
CLASSES
  0
CLASS
  1
ACDBDICTIONARYWDFLT
  2
AcDbDictionaryWithDefault
  3
ObjectDBX Classes
 90
0
 91
0
280
0
281
0
  0
CLASS
  1
SUN
  2
AcDbSun
  3
SCENEOE
 90
1153
 91
0
280
0
281
0
  0
CLASS
  1
VISUALSTYLE
  2
AcDbVisualStyle
  3
ObjectDBX Classes
 90
4095
 91
0
280
0
281
0
  0
CLASS
  1
MATERIAL
  2
AcDbMaterial
  3
ObjectDBX Classes
 90
1153
 91
0
280
0
281
0
  0
CLASS
  1
SCALE
  2
AcDbScale
  3
ObjectDBX Classes
 90
1153
 91
0
280
0
281
0
  0
CLASS
  1
TABLESTYLE
  2
AcDbTableStyle
  3
ObjectDBX Classes
 90
4095
 91
0
280
0
281
0
  0
CLASS
  1
MLEADERSTYLE
  2
AcDbMLeaderStyle
  3
ACDB_MLEADERSTYLE_CLASS
 90
4095
 91
0
280
0
281
0
  0
CLASS
  1
DICTIONARYVAR
  2
AcDbDictionaryVar
  3
ObjectDBX Classes
 90
0
 91
0
280
0
281
0
  0
CLASS
  1
CELLSTYLEMAP
  2
AcDbCellStyleMap
  3
ObjectDBX Classes
 90
1152
 91
0
280
0
281
0
  0
CLASS
  1
MENTALRAYRENDERSETTINGS
  2
AcDbMentalRayRenderSettings
  3
SCENEOE
 90
1024
 91
0
280
0
281
0
  0
CLASS
  1
ACDBDETAILVIEWSTYLE
  2
AcDbDetailViewStyle
  3
ObjectDBX Classes
 90
1025
 91
0
280
0
281
0
  0
CLASS
  1
ACDBSECTIONVIEWSTYLE
  2
AcDbSectionViewStyle
  3
ObjectDBX Classes
 90
1025
 91
0
280
0
281
0
  0
CLASS
  1
RASTERVARIABLES
  2
AcDbRasterVariables
  3
ISM
 90
0
 91
0
280
0
281
0
  0
CLASS
  1
LAYOUT
  2
AcDbLayout
  3
ObjectDBX Classes
 90
0
 91
0
280
0
281
0
  0
CLASS
  1
ACDBPLACEHOLDER
  2
AcDbPlaceHolder
  3
ObjectDBX Classes
 90
0
 91
0
280
0
281
0
  0
ENDSEC
  0
SECTION
  2
TABLES
  0
TABLE
  2
VPORT
  5
8
330
0
100
AcDbSymbolTable
 70
1
  0
VPORT
  5
23
330
8
100
AcDbSymbolTableRecord
100
AcDbViewportTableRecord
  2
*Active
 70
0
 10
0.0
 20
0.0
 11
1.0
 21
1.0
 12
344.2
 22
148.5
 13
0.0
 23
0.0
 14
0.5
 24
0.5
 15
0.5
 25
0.5
 16
0.0
 26
0.0
 36
1.0
 17
0.0
 27
0.0
 37
0.0
 40
297.0
 41
1.34
 42
50.0
 43
0.0
 44
0.0
 50
0.0
 51
0.0
 71
0
 72
1000
 73
1
 74
3
 75
0
 76
0
 77
0
 78
0
281
0
 65
0
146
0.0
  0
ENDTAB
  0
TABLE
  2
LTYPE
  5
2
330
0
100
AcDbSymbolTable
 70
3
  0
LTYPE
  5
24
330
2
100
AcDbSymbolTableRecord
100
AcDbLinetypeTableRecord
  2
ByBlock
 70
0
  3

 72
65
 73
0
 40
0.0
  0
LTYPE
  5
25
330
2
100
AcDbSymbolTableRecord
100
AcDbLinetypeTableRecord
  2
ByLayer
 70
0
  3

 72
65
 73
0
 40
0.0
  0
LTYPE
  5
26
330
2
100
AcDbSymbolTableRecord
100
AcDbLinetypeTableRecord
  2
Continuous
 70
0
  3

 72
65
 73
0
 40
0.0
  0
ENDTAB
  0
TABLE
  2
LAYER
  5
1
330
0
100
AcDbSymbolTable
 70
2
  0
LAYER
  5
27
330
1
100
AcDbSymbolTableRecord
100
AcDbLayerTableRecord
  2
0
 70
0
 62
7
  6
Continuous
370
-3
390
13
347
21
  0
LAYER
  5
28
330
1
100
AcDbSymbolTableRecord
100
AcDbLayerTableRecord
  2
Defpoints
 70
0
 62
7
  6
Continuous
290
0
370
-3
390
13
347
21
  0
ENDTAB
  0
TABLE
  2
STYLE
  5
5
330
0
100
AcDbSymbolTable
 70
1
  0
STYLE
  5
29
330
5
100
AcDbSymbolTableRecord
100
AcDbTextStyleTableRecord
  2
Standard
 70
0
 40
0.0
 41
1.0
 50
0.0
 71
0
 42
2.5
  3
txt
  4

  0
ENDTAB
  0
TABLE
  2
VIEW
  5
7
330
0
100
AcDbSymbolTable
 70
0
  0
ENDTAB
  0
TABLE
  2
UCS
  5
6
330
0
100
AcDbSymbolTable
 70
0
  0
ENDTAB
  0
TABLE
  2
APPID
  5
3
330
0
100
AcDbSymbolTable
 70
3
  0
APPID
  5
2A
330
3
100
AcDbSymbolTableRecord
100
AcDbRegAppTableRecord
  2
ACAD
 70
0
  0
APPID
  5
1C5
330
3
100
AcDbSymbolTableRecord
100
AcDbRegAppTableRecord
  2
HATCHBACKGROUNDCOLOR
 70
0
  0
APPID
  5
1C6
330
3
100
AcDbSymbolTableRecord
100
AcDbRegAppTableRecord
  2
EZDXF
 70
0
  0
ENDTAB
  0
TABLE
  2
DIMSTYLE
  5
4
330
0
100
AcDbSymbolTable
 70
1
100
AcDbDimStyleTable
  0
DIMSTYLE
105
2B
330
4
100
AcDbSymbolTableRecord
100
AcDbDimStyleTableRecord
  2
Standard
 70
0
 40
1.0
 41
2.5
 42
0.625
 43
3.75
 44
1.25
 45
0.0
 46
0.0
 47
0.0
 48
0.0
 49
2.5
140
2.5
141
2.5
142
0.0
143
0.03937007874
144
1.0
145
0.0
146
1.0
147
0.625
148
0.0
 69
0
 70
0
 71
0
 72
0
 73
0
 74
0
 75
0
 76
0
 77
1
 78
8
 79
0
170
0
171
3
172
1
173
0
174
0
175
0
176
0
177
0
178
0
179
0
271
0
272
2
273
2
274
3
275
0
276
0
277
2
278
44
279
0
280
0
281
0
282
0
283
0
284
8
285
0
286
0
288
0
289
3
290
0
371
-2
372
-2
  0
ENDTAB
  0
TABLE
  2
BLOCK_RECORD
  5
9
330
0
100
AcDbSymbolTable
 70
2
  0
BLOCK_RECORD
  5
17
330
9
100
AcDbSymbolTableRecord
100
AcDbBlockTableRecord
  2
*Model_Space
340
1A
 70
0
280
1
281
0
  0
BLOCK_RECORD
  5
1B
330
9
100
AcDbSymbolTableRecord
100
AcDbBlockTableRecord
  2
*Paper_Space
340
1E
 70
0
280
1
281
0
  0
ENDTAB
  0
ENDSEC
  0
SECTION
  2
BLOCKS
  0
BLOCK
  5
18
330
17
100
AcDbEntity
  8
0
100
AcDbBlockBegin
  2
*Model_Space
 70
0
 10
0.0
 20
0.0
 30
0.0
  3
*Model_Space
  1

  0
ENDBLK
  5
19
330
17
100
AcDbEntity
  8
0
100
AcDbBlockEnd
  0
BLOCK
  5
1C
330
1B
100
AcDbEntity
  8
0
100
AcDbBlockBegin
  2
*Paper_Space
 70
0
 10
0.0
 20
0.0
 30
0.0
  3
*Paper_Space
  1

  0
ENDBLK
  5
1D
330
1B
100
AcDbEntity
  8
0
100
AcDbBlockEnd
  0
ENDSEC
  0
SECTION
  2
ENTITIES
  0
LINE
  5
2F
330
17
100
AcDbEntity
  8
0
100
AcDbLine
 10
97.2186848476944
 20
-66.71238734636945
 30
-4.999999999999999
 11
97.2186848476944
 21
-66.71238734636945
 31
8.881784197001252e-16
  0
LINE
  5
30
330
17
100
AcDbEntity
  8
0
100
AcDbLine
 10
90.49039613889175
 20
-58.10057051455832
 30
-5.0
 11
90.49039613889175
 21
-58.10057051455832
 31
0.0
  0
LINE
  5
31
330
17
100
AcDbEntity
  8
0
100
AcDbLine
 10
97.21868484769428
 20
-66.71238734636957
 30
-5.0
 11
90.49039613889175
 21
-58.10057051455831
 31
-5.0
  0
LINE
  5
32
330
17
100
AcDbEntity
  8
0
100
AcDbLine
 10
97.21868484769428
 20
-66.71238734636957
 30
0.0
 11
90.49039613889175
 21
-58.10057051455831
 31
0.0
  0
LINE
  5
33
330
17
100
AcDbEntity
  8
0
100
AcDbLine
 10
100.89983878675464
 20
-71.05354513490529
 30
-5.0
 11
100.89983878675464
 21
-71.05354513490529
 31
0.0
  0
LINE
  5
34
330
17
100
AcDbEntity
  8
0
100
AcDbLine
 10
100.89983878675466
 20
-71.05354513490528
 30
-5.0
 11
97.21868484769442
 21
-66.71238734636944
 31
-5.0
  0
LINE
  5
35
330
17
100
AcDbEntity
  8
0
100
AcDbLine
 10
100.89983878675466
 20
-71.05354513490528
 30
0.0
 11
97.21868484769442
 21
-66.71238734636944
 31
0.0
  0
LINE
  5
36
330
17
100
AcDbEntity
  8
0
100
AcDbLine
 10
94.20426786019337
 20
-48.827264195266125
 30
-5.0
 11
94.20426786019337
 21
-48.827264195266125
 31
0.0
  0
LINE
  5
37
330
17
100
AcDbEntity
  8
0
100
AcDbLine
 10
94.20426786019335
 20
-48.8272641952661
 30
-5.0
 11
90.49039613889173
 21
-58.100570514558314
 31
-5.0
  0
LINE
  5
38
330
17
100
AcDbEntity
  8
0
100
AcDbLine
 10
94.20426786019335
 20
-48.8272641952661
 30
0.0
 11
90.49039613889173
 21
-58.100570514558314
 31
0.0
  0
LINE
  5
39
330
17
100
AcDbEntity
  8
0
100
AcDbLine
 10
100.90010731212007
 20
-72.84271236730669
 30
-4.999999999999999
 11
100.89983878675469
 21
-71.05354513490529
 31
-4.999999999999999
  0
LINE
  5
3A
330
17
100
AcDbEntity
  8
0
100
AcDbLine
 10
94.20426786019277
 20
-48.82726419526685
 30
-5.0
 11
84.8079056047637
 21
-40.94278009232702
 31
-5.0
  0
LINE
  5
3B
330
17
100
AcDbEntity
  8
0
100
AcDbLine
 10
100.90010731212003
 20
-72.84271236730669
 30
-5.0
 11
98.12740025778454
 21
-82.49695798642082
 31
-5.0
  0
LINE
  5
3C
330
17
100
AcDbEntity
  8
0
100
AcDbLine
 10
101.81645841107924
 20
-31.196315916989708
 30
-5.0
 11
84.80790560476372
 21
-40.94278009232703
 31
-5.0
  0
LINE
  5
3D
330
17
100
AcDbEntity
  8
0
100
AcDbLine
 10
84.49545598181697
 20
-94.45290829506068
 30
-5.0
 11
98.12740025778453
 21
-82.49695798642082
 31
-5.0
  0
LINE
  5
3E
330
17
100
AcDbEntity
  8
0
100
AcDbLine
 10
101.81645841107922
 20
-31.196315916989697
 30
-5.0
 11
104.14582611026728
 21
-13.809650013587525
 31
-5.0
  0
LINE
  5
3F
330
17
100
AcDbEntity
  8
0
100
AcDbLine
 10
84.49545598181697
 20
-94.45290829506068
 30
-5.0
 11
82.7201261823266
 21
-94.34084080534126
 31
-5.0
  0
LINE
  5
40
330
17
100
AcDbEntity
  8
0
100
AcDbLine
 10
104.4591355085405
 20
-9.05
 30
-5.0
 11
104.14582611026728
 21
-13.809650013587525
 31
-5.0
  0
LINE
  5
41
330
17
100
AcDbEntity
  8
0
100
AcDbLine
 10
80.47643917704615
 20
-93.60936666851526
 30
-5.0
 11
82.7201261823266
 21
-94.34084080534129
 31
-5.0
  0
LINE
  5
42
330
17
100
AcDbEntity
  8
0
100
AcDbLine
 10
104.45913550854048
 20
9.050000000000002
 30
-5.0
 11
104.45913550854048
 21
-9.049999999999999
 31
-5.0
  0
LINE
  5
43
330
17
100
AcDbEntity
  8
0
100
AcDbLine
 10
80.47643917704615
 20
-93.60936666851526
 30
-5.0
 11
79.50381681066588
 21
-93.19522001237314
 31
-5.0
  0
LINE
  5
44
330
17
100
AcDbEntity
  8
0
100
AcDbLine
 10
104.45913550854051
 20
9.050000000000002
 30
-5.0
 11
104.1458261102673
 21
13.809650013587525
 31
-5.0
  0
LINE
  5
45
330
17
100
AcDbEntity
  8
0
100
AcDbLine
 10
78.38297501289296
 20
-92.55883004293845
 30
-5.0
 11
79.50381681066588
 21
-93.19522001237314
 31
-5.0
  0
LINE
  5
46
330
17
100
AcDbEntity
  8
0
100
AcDbLine
 10
101.81645841107922
 20
31.196315916989693
 30
-5.0
 11
104.14582611026728
 21
13.80965001358752
 31
-5.0
  0
LINE
  5
47
330
17
100
AcDbEntity
  8
0
100
AcDbLine
 10
78.38297501289296
 20
-92.55883004293845
 30
-5.000000000000001
 11
75.48044321249944
 21
-97.06607847505164
 31
-5.000000000000001
  0
LINE
  5
48
330
17
100
AcDbEntity
  8
0
100
AcDbLine
 10
101.81645841107922
 20
31.19631591698969
 30
-5.0
 11
100.89788169812016
 21
35.631604192665485
 31
-5.0
  0
LINE
  5
49
330
17
100
AcDbEntity
  8
0
100
AcDbLine
 10
66.75486701522105
 20
-107.10162065788089
 30
-5.0
 11
75.48044321249944
 21
-97.06607847505164
 31
-5.0
  0
LINE
  5
4A
330
17
100
AcDbEntity
  8
0
100
AcDbLine
 10
96.39788859234692
 20
51.22006544116855
 30
-5.0
 11
100.89788169812016
 21
35.631604192665485
 31
-5.0
  0
LINE
  5
4B
330
17
100
AcDbEntity
  8
0
100
AcDbLine
 10
66.75486701522105
 20
-107.10162065788087
 30
-5.0
 11
62.4067867408729
 21
-108.30160331562364
 31
-5.0
  0
LINE
  5
4C
330
17
100
AcDbEntity
  8
0
100
AcDbLine
 10
96.39788859234692
 20
51.22006544116855
 30
-5.0
 11
94.93664394452406
 21
55.02873492029788
 31
-5.0
  0
LINE
  5
4D
330
17
100
AcDbEntity
  8
0
100
AcDbLine
 10
55.369137289780525
 20
-107.28857504886685
 30
-5.0
 11
62.4067867408729
 21
-108.30160331562364
 31
-5.0
  0
LINE
  5
4E
330
17
100
AcDbEntity
  8
0
100
AcDbLine
 10
88.57269201063524
 20
67.75666542532399
 30
-5.0
 11
94.9366439445241
 21
55.0287349202979
 31
-5.0
  0
LINE
  5
4F
330
17
100
AcDbEntity
  8
0
100
AcDbLine
 10
55.369137289780525
 20
-107.2885750488668
 30
-5.0
 11
53.56962861311602
 21
-107.30070268759255
 31
-5.0
  0
LINE
  5
50
330
17
100
AcDbEntity
  8
0
100
AcDbLine
 10
88.57269201063517
 20
67.75666542532396
 30
-5.0
 11
79.07269201063518
 21
77.25666542532396
 31
-5.0
  0
LINE
  5
51
330
17
100
AcDbEntity
  8
0
100
AcDbLine
 10
44.647085349317706
 20
-95.01987545467873
 30
-5.0
 11
53.56962861311558
 21
-107.30070268759292
 31
-5.0
  0
LINE
  5
52
330
17
100
AcDbEntity
  8
0
100
AcDbLine
 10
79.07269201063517
 20
77.25666542532397
 30
-5.0
 11
78.97269201063517
 21
77.25666542532397
 31
-5.0
  0
LINE
  5
53
330
17
100
AcDbEntity
  8
0
100
AcDbLine
 10
45.39358534013567
 20
-91.47148474984331
 30
-5.0
 11
44.647085349317706
 21
-95.01987545467873
 31
-5.0
  0
LINE
  5
54
330
17
100
AcDbEntity
  8
0
100
AcDbLine
 10
52.9818187573793
 20
77.21725428265543
 30
-5.0
 11
78.97269201063517
 21
77.25666542532396
 31
-5.0
  0
LINE
  5
55
330
17
100
AcDbEntity
  8
0
100
AcDbLine
 10
35.46383933637293
 20
-80.44338456898925
 30
-5.0
 11
45.39358534013617
 21
-91.47148474984289
 31
-5.0
  0
LINE
  5
56
330
17
100
AcDbEntity
  8
0
100
AcDbLine
 10
52.9818187573793
 20
77.21725428265543
 30
-5.0
 11
19.92125695480429
 21
77.21725428265543
 31
-5.0
  0
LINE
  5
57
330
17
100
AcDbEntity
  8
0
100
AcDbLine
 10
23.38852812989213
 20
-68.77775491821167
 30
-5.0
 11
35.46383933637294
 21
-80.44338456898923
 31
-5.0
  0
LINE
  5
58
330
17
100
AcDbEntity
  8
0
100
AcDbLine
 10
18.956762211628575
 20
80.03725428265543
 30
-5.0
 11
19.921256954804292
 21
77.21725428265543
 31
-5.0
  0
LINE
  5
59
330
17
100
AcDbEntity
  8
0
100
AcDbLine
 10
23.38852812989213
 20
-68.77775491821167
 30
-5.0
 11
4.129446600950602
 21
-61.39785730475387
 31
-5.0
  0
LINE
  5
5A
330
17
100
AcDbEntity
  8
0
100
AcDbLine
 10
18.956762211628572
 20
80.0372542826554
 30
-5.0
 11
1.9483239501578105
 21
80.0372542826554
 31
-5.0
  0
LINE
  5
5B
330
17
100
AcDbEntity
  8
0
100
AcDbLine
 10
4.12944660095061
 20
-61.39785730475387
 30
-5.0
 11
-13.42542095681547
 21
-63.03605735271663
 31
-5.0
  0
LINE
  5
5C
330
17
100
AcDbEntity
  8
0
100
AcDbLine
 10
-0.6124104069949183
 20
77.21725428265543
 30
-5.0
 11
1.948323950157807
 21
80.03725428265543
 31
-5.0
  0
LINE
  5
5D
330
17
100
AcDbEntity
  8
0
100
AcDbLine
 10
-13.425420956815469
 20
-63.03605735271664
 30
-5.000000000000001
 11
-17.019371024514086
 21
-63.27698694701967
 31
-5.000000000000001
  0
LINE
  5
5E
330
17
100
AcDbEntity
  8
0
100
AcDbLine
 10
-0.6124104069949148
 20
77.21725428265543
 30
-5.0
 11
-17.999076310397083
 21
77.21725428265543
 31
-5.0
  0
LINE
  5
5F
330
17
100
AcDbEntity
  8
0
100
AcDbLine
 10
-56.130193681783425
 20
-63.27698694701964
 30
-5.0
 11
-17.019371024514086
 21
-63.27698694701964
 31
-5.0
  0
LINE
  5
60
330
17
100
AcDbEntity
  8
0
100
AcDbLine
 10
-20.699004541510725
 20
71.21725428265543
 30
-5.0
 11
-17.999076310397093
 21
77.21725428265543
 31
-5.0
  0
LINE
  5
61
330
17
100
AcDbEntity
  8
0
100
AcDbLine
 10
-56.130193681783425
 20
-63.27698694701966
 30
-5.0
 11
-65.38704881862063
 21
-59.16336522866469
 31
-5.0
  0
LINE
  5
62
330
17
100
AcDbEntity
  8
0
100
AcDbLine
 10
-20.699004541510718
 20
71.21725428265543
 30
-5.0
 11
-57.92760975060058
 21
71.21725428265543
 31
-5.0
  0
LINE
  5
63
330
17
100
AcDbEntity
  8
0
100
AcDbLine
 10
-65.38704881862029
 20
-59.1633652286647
 30
-5.0
 11
-64.6026483956359
 21
-43.57490398016162
 31
-5.0
  0
LINE
  5
64
330
17
100
AcDbEntity
  8
0
100
AcDbLine
 10
-57.92760975060058
 20
71.21725428265545
 30
-5.0
 11
-66.80599036636754
 21
64.49973540500278
 31
-5.0
  0
LINE
  5
65
330
17
100
AcDbEntity
  8
0
100
AcDbLine
 10
-64.40526636179357
 20
-38.107413065682834
 30
-5.0
 11
-64.6026483956359
 21
-43.57490398016163
 31
-5.0
  0
LINE
  5
66
330
17
100
AcDbEntity
  8
0
100
AcDbLine
 10
-65.69668053600314
 20
51.7718048999769
 30
-5.0
 11
-66.80599036636752
 21
64.49973540500278
 31
-5.0
  0
LINE
  5
67
330
17
100
AcDbEntity
  8
0
100
AcDbLine
 10
-64.40526636179338
 20
-38.10741306568284
 30
-5.0
 11
-64.0846798823351
 21
-24.379722173944234
 31
-5.0
  0
LINE
  5
68
330
17
100
AcDbEntity
  8
0
100
AcDbLine
 10
-65.38269103849295
 20
47.076762666173
 30
-5.0
 11
-65.69668053600522
 21
51.77180489997673
 31
-5.0
  0
LINE
  5
69
330
17
100
AcDbEntity
  8
0
100
AcDbLine
 10
-64.08467988233514
 20
-24.37972217394423
 30
-5.0
 11
-64.08467988233514
 21
12.379722173944234
 31
-5.0
  0
LINE
  5
6A
330
17
100
AcDbEntity
  8
0
100
AcDbLine
 10
-64.60264839563624
 20
31.574903980161608
 30
-5.0
 11
-65.38269103849294
 21
47.076762666173
 31
-5.0
  0
LINE
  5
6B
330
17
100
AcDbEntity
  8
0
100
AcDbLine
 10
-64.08467988233629
 20
12.379722173944206
 30
-5.0
 11
-64.40526636179357
 21
26.107413065682834
 31
-5.0
  0
LINE
  5
6C
330
17
100
AcDbEntity
  8
0
100
AcDbLine
 10
-64.40526636179358
 20
26.107413065682838
 30
-5.0
 11
-64.60264839563591
 21
31.574903980161636
 31
-5.0
  0
CIRCLE
  5
6D
330
17
100
AcDbEntity
  8
0
100
AcDbCircle
 10
49.16724074406383
 20
-89.14631591698972
 30
-5.0
 40
4.0
  0
CIRCLE
  5
6E
330
17
100
AcDbEntity
  8
0
100
AcDbCircle
 10
96.43114226067327
 20
-22.452982965288605
 30
-5.0
 40
4.0
  0
CIRCLE
  5
6F
330
17
100
AcDbEntity
  8
0
100
AcDbCircle
 10
11.592034869640782
 20
-58.05163399462613
 30
-5.0
 40
4.0
  0
CIRCLE
  5
70
330
17
100
AcDbEntity
  8
0
100
AcDbCircle
 10
-57.336647982505
 20
-35.747077122813295
 30
-5.0
 40
4.0
  0
CIRCLE
  5
71
330
17
100
AcDbEntity
  8
0
100
AcDbCircle
 10
85.20466797757963
 20
61.34270017281092
 30
-5.0
 40
4.0
  0
LINE
  5
72
330
17
100
AcDbEntity
  8
0
100
AcDbLine
 10
46.483314623772316
 20
-85.84481933563745
 30
-5.0
 11
38.62819138311615
 21
-77.12082115903559
 31
-5.0
  0
ARC
  5
73
330
17
100
AcDbEntity
  8
0
100
AcDbCircle
 10
49.16724074406384
 20
-89.14631591698969
 30
-5.0
 40
4.254801886792453
100
AcDbArc
 50
-93.17065539556364
 51
129.10911927764158
  0
LINE
  5
74
330
17
100
AcDbEntity
  8
0
100
AcDbLine
 10
24.573193699283422
 20
-64.38664342121173
 30
-5.000000000000001
 11
38.62819138311616
 21
-77.1208211590356
 31
-5.000000000000001
  0
LINE
  5
75
330
17
100
AcDbEntity
  8
0
100
AcDbLine
 10
56.69174319116634
 20
-104.0751027905313
 30
-5.0
 11
48.931907071744526
 21
-93.39460464994133
 31
-5.0
  0
LINE
  5
76
330
17
100
AcDbEntity
  8
0
100
AcDbLine
 10
24.57319369928341
 20
-64.38664342121172
 30
-5.000000000000001
 11
14.739238850236676
 21
-60.91492688924483
 31
-5.000000000000001
  0
LINE
  5
77
330
17
100
AcDbEntity
  8
0
100
AcDbLine
 10
56.95358505681958
 20
-104.0733381291045
 30
-5.0
 11
56.69174319116557
 21
-104.07510279053187
 31
-5.0
  0
ARC
  5
78
330
17
100
AcDbEntity
  8
0
100
AcDbCircle
 10
11.592034869640788
 20
-58.05163399462613
 30
-5.0
 40
4.254801886792453
100
AcDbArc
 50
-402.2955938420764
 51
-176.59389385686495
  0
LINE
  5
79
330
17
100
AcDbEntity
  8
0
100
AcDbLine
 10
62.70736719970311
 20
-102.89093808283597
 30
-5.0
 11
56.953585056819584
 21
-104.07333812910451
 31
-5.0
  0
LINE
  5
7A
330
17
100
AcDbEntity
  8
0
100
AcDbLine
 10
7.344749082560305
 20
-58.30442350927552
 30
-5.000000000000001
 11
4.802405504626824
 21
-57.40689079075719
 31
-5.000000000000001
  0
LINE
  5
7B
330
17
100
AcDbEntity
  8
0
100
AcDbLine
 10
62.70736719970311
 20
-102.89093808283594
 30
-5.0
 11
71.87951484002518
 21
-92.90263249238001
 31
-5.0
  0
LINE
  5
7C
330
17
100
AcDbEntity
  8
0
100
AcDbLine
 10
4.802405504626824
 20
-57.4068907907572
 30
-5.0
 11
4.7058129162745885
 21
-57.4068907907572
 31
-5.0
  0
LINE
  5
7D
330
17
100
AcDbEntity
  8
0
100
AcDbLine
 10
75.93590027844948
 20
-89.95549596138308
 30
-5.0
 11
71.87951484002517
 21
-92.90263249238001
 31
-5.0
  0
LINE
  5
7E
330
17
100
AcDbEntity
  8
0
100
AcDbLine
 10
-12.810262303749136
 20
-58.272916415674025
 30
-5.000000000000001
 11
4.70581291627459
 21
-57.40689079075719
 31
-5.000000000000001
  0
LINE
  5
7F
330
17
100
AcDbEntity
  8
0
100
AcDbLine
 10
76.65294898015348
 20
-89.55575464237172
 30
-5.0
 11
75.93590027844948
 21
-89.95549596138308
 31
-5.0
  0
LINE
  5
80
330
17
100
AcDbEntity
  8
0
100
AcDbLine
 10
-16.91381552050257
 20
-61.24182672846511
 30
-5.0
 11
-12.810262303749134
 21
-58.27291641567403
 31
-5.0
  0
LINE
  5
81
330
17
100
AcDbEntity
  8
0
100
AcDbLine
 10
80.82619930602169
 20
-89.9709079223494
 30
-5.0
 11
76.6529489801535
 21
-89.55575464237172
 31
-5.0
  0
LINE
  5
82
330
17
100
AcDbEntity
  8
0
100
AcDbLine
 10
-55.92816637833104
 20
-61.24182672846511
 30
-5.0
 11
-16.913815520502563
 21
-61.24182672846511
 31
-5.0
  0
LINE
  5
83
330
17
100
AcDbEntity
  8
0
100
AcDbLine
 10
80.82619930602168
 20
-89.9709079223494
 30
-5.0
 11
94.38490018409357
 21
-78.23832809144504
 31
-5.0
  0
LINE
  5
84
330
17
100
AcDbEntity
  8
0
100
AcDbLine
 10
-60.80019539771902
 20
-59.07676266617299
 30
-5.0
 11
-55.92816637833103
 21
-61.241826728465085
 31
-5.0
  0
LINE
  5
85
330
17
100
AcDbEntity
  8
0
100
AcDbLine
 10
94.38490018409357
 20
-78.23832809144503
 30
-5.0
 11
95.06214799818542
 21
-75.45953052104149
 31
-5.0
  0
LINE
  5
86
330
17
100
AcDbEntity
  8
0
100
AcDbLine
 10
-60.01579497473432
 20
-43.488301417669945
 30
-5.0
 11
-60.80019539771998
 21
-59.07676266617297
 31
-5.0
  0
LINE
  5
87
330
17
100
AcDbEntity
  8
0
100
AcDbLine
 10
93.94708903193693
 20
-69.97837365135946
 30
-5.0
 11
95.06214799818541
 21
-75.45953052104149
 31
-5.0
  0
LINE
  5
88
330
17
100
AcDbEntity
  8
0
100
AcDbLine
 10
-59.86000326249163
 20
-39.172864218768865
 30
-5.0
 11
-60.015794974734305
 21
-43.48830141766995
 31
-5.0
  0
LINE
  5
89
330
17
100
AcDbEntity
  8
0
100
AcDbLine
 10
86.93725651609441
 20
-61.00619717963185
 30
-5.0
 11
93.94708903193694
 21
-69.97837365135946
 31
-5.0
  0
ARC
  5
8A
330
17
100
AcDbEntity
  8
0
100
AcDbCircle
 10
-57.336647982505006
 20
-35.7470771228133
 30
-5.0
 40
4.254801886792453
100
AcDbArc
 50
-126.37449847563676
 51
123.49607670762964
  0
LINE
  5
8B
330
17
100
AcDbEntity
  8
0
100
AcDbLine
 10
90.99416275991729
 20
-52.105644395009925
 30
-5.0
 11
86.93725651609441
 21
-61.00619717963186
 31
-5.0
  0
LINE
  5
8C
330
17
100
AcDbEntity
  8
0
100
AcDbLine
 10
-59.46710865941395
 20
-22.877766288651802
 30
-5.0
 11
-59.684787555134506
 21
-32.19889735801793
 31
-5.0
  0
LINE
  5
8D
330
17
100
AcDbEntity
  8
0
100
AcDbLine
 10
80.5153489376388
 20
-43.312875581560654
 30
-5.0
 11
90.9941627599173
 21
-52.10564439500993
 31
-5.0
  0
LINE
  5
8E
330
17
100
AcDbEntity
  8
0
100
AcDbLine
 10
-58.91634845210865
 20
-20.578742482872997
 30
-5.000000000000001
 11
-59.467108659414144
 21
-22.87776628865172
 31
-5.000000000000001
  0
LINE
  5
8F
330
17
100
AcDbEntity
  8
0
100
AcDbLine
 10
80.51534893763878
 20
-43.31287558156065
 30
-5.0
 11
80.58375322324132
 21
-43.240447979219255
 31
-5.0
  0
LINE
  5
90
330
17
100
AcDbEntity
  8
0
100
AcDbLine
 10
-58.244477050131096
 20
-15.049999999999999
 30
-5.0
 11
-58.916348452108664
 21
-20.57874248287299
 31
-5.0
  0
LINE
  5
91
330
17
100
AcDbEntity
  8
0
100
AcDbLine
 10
80.58375322324135
 20
-43.24044797921928
 30
-5.000000000000002
 11
97.21645841107926
 21
-31.096315916989703
 31
-5.000000000000002
  0
LINE
  5
92
330
17
100
AcDbEntity
  8
0
100
AcDbLine
 10
-58.244477050131096
 20
3.050000000000001
 30
-5.0
 11
-58.244477050131096
 21
-15.050000000000002
 31
-5.0
  0
LINE
  5
93
330
17
100
AcDbEntity
  8
0
100
AcDbLine
 10
97.21645841107923
 20
-31.096315916989695
 30
-5.0
 11
97.83639673085139
 21
-26.469025665496964
 31
-5.0
  0
LINE
  5
94
330
17
100
AcDbEntity
  8
0
100
AcDbLine
 10
-58.24447705013109
 20
3.050000000000001
 30
-5.0
 11
-58.91634845210865
 21
8.578742482872995
 31
-5.0
  0
ARC
  5
95
330
17
100
AcDbEntity
  8
0
100
AcDbCircle
 10
96.43114226067327
 20
-22.45298296528861
 30
-5.0
 40
4.254801886792453
100
AcDbArc
 50
-304.5469200668877
 51
-70.71453546487646
  0
LINE
  5
96
330
17
100
AcDbEntity
  8
0
100
AcDbLine
 10
-59.467108659413825
 20
10.877766288651797
 30
-5.0
 11
-58.916348452108664
 21
8.57874248287299
 31
-5.0
  0
LINE
  5
97
330
17
100
AcDbEntity
  8
0
100
AcDbLine
 10
98.84395927934676
 20
-18.94846400682199
 30
-5.0
 11
99.54582611026729
 21
-13.709650013587524
 31
-5.0
  0
LINE
  5
98
330
17
100
AcDbEntity
  8
0
100
AcDbLine
 10
-59.825026473868846
 20
26.204005654035075
 30
-5.0
 11
-59.46710865941397
 21
10.877766288651797
 31
-5.0
  0
LINE
  5
99
330
17
100
AcDbEntity
  8
0
100
AcDbLine
 10
99.54582611026727
 20
-13.709650013587524
 30
-5.0
 11
99.8591355085405
 21
-8.949999999999996
 31
-5.0
  0
LINE
  5
9A
330
17
100
AcDbEntity
  8
0
100
AcDbLine
 10
-59.825026473868846
 20
26.204005654035072
 30
-5.0
 11
-60.0157949747343
 21
31.488301417669945
 31
-5.0
  0
LINE
  5
9B
330
17
100
AcDbEntity
  8
0
100
AcDbLine
 10
99.8591355085405
 20
-8.95
 30
-5.0
 11
99.8591355085405
 21
8.95
 31
-5.0
  0
LINE
  5
9C
330
17
100
AcDbEntity
  8
0
100
AcDbLine
 10
-60.80455317784673
 20
47.16336522866469
 30
-5.0
 11
-60.01579497473465
 21
31.48830141766993
 31
-5.0
  0
LINE
  5
9D
330
17
100
AcDbEntity
  8
0
100
AcDbLine
 10
99.54582611026727
 20
13.709650013587524
 30
-5.0
 11
99.85913550854049
 21
8.95
 31
-5.0
  0
LINE
  5
9E
330
17
100
AcDbEntity
  8
0
100
AcDbLine
 10
-60.80455317784673
 20
47.16336522866469
 30
-5.0
 11
-61.10802206284041
 21
51.70109417494879
 31
-5.0
  0
LINE
  5
9F
330
17
100
AcDbEntity
  8
0
100
AcDbLine
 10
97.21645841107924
 20
31.096315916989695
 30
-5.0
 11
99.54582611026729
 21
13.709650013587524
 31
-5.0
  0
LINE
  5
A0
330
17
100
AcDbEntity
  8
0
100
AcDbLine
 10
-61.767661193972195
 20
59.26962082966763
 30
-5.000000000000001
 11
-61.10802206284087
 21
51.70109417494875
 31
-5.000000000000001
  0
LINE
  5
A1
330
17
100
AcDbEntity
  8
0
100
AcDbLine
 10
96.2978816981202
 20
35.5316041926655
 30
-5.0
 11
97.21645841107924
 21
31.096315916989692
 31
-5.0
  0
ARC
  5
A2
330
17
100
AcDbEntity
  8
0
100
AcDbCircle
 10
-58.40633879803674
 20
61.87823173327871
 30
-5.0
 40
4.254801886792453
100
AcDbArc
 50
-142.18614636974678
 51
152.14826365488426
  0
LINE
  5
A3
330
17
100
AcDbEntity
  8
0
100
AcDbLine
 10
91.79788859234694
 20
51.12006544116856
 30
-5.0
 11
96.29788169812018
 21
35.5316041926655
 31
-5.0
  0
LINE
  5
A4
330
17
100
AcDbEntity
  8
0
100
AcDbLine
 10
-62.21733189320272
 20
64.42902467997487
 30
-5.000000000000001
 11
-62.16826222903012
 21
63.86601220284746
 31
-5.000000000000001
  0
LINE
  5
A5
330
17
100
AcDbEntity
  8
0
100
AcDbLine
 10
90.33664394452407
 20
54.928734920297885
 30
-5.0
 11
91.79788859234692
 21
51.120065441168556
 31
-5.0
  0
LINE
  5
A6
330
17
100
AcDbEntity
  8
0
100
AcDbLine
 10
-62.217331893202726
 20
64.42902467997486
 30
-5.0
 11
-57.54449999016749
 21
67.964560931371
 31
-5.0
  0
LINE
  5
A7
330
17
100
AcDbEntity
  8
0
100
AcDbLine
 10
90.33664394452408
 20
54.928734920297885
 30
-5.0
 11
88.48471446667614
 21
58.632601627514475
 31
-5.0
  0
LINE
  5
A8
330
17
100
AcDbEntity
  8
0
100
AcDbLine
 10
-20.035700712327
 20
67.964560931371
 30
-5.0
 11
-57.54449999016749
 21
67.964560931371
 31
-5.0
  0
ARC
  5
A9
330
17
100
AcDbEntity
  8
0
100
AcDbCircle
 10
85.20466797757962
 20
61.34270017281092
 30
-5.0
 40
4.254801886792453
100
AcDbArc
 50
-267.3051873630135
 51
-39.56480621060405
  0
LINE
  5
AA
330
17
100
AcDbEntity
  8
0
100
AcDbLine
 10
-20.035700712327
 20
67.964560931371
 30
-5.0
 11
-17.06062654659407
 21
73.964560931371
 31
-5.0
  0
LINE
  5
AB
330
17
100
AcDbEntity
  8
0
100
AcDbLine
 10
85.00462415054776
 20
65.59279682619646
 30
-5.0
 11
83.97269201063517
 21
67.65666542532398
 31
-5.0
  0
LINE
  5
AC
330
17
100
AcDbEntity
  8
0
100
AcDbLine
 10
0.3260393568080957
 20
73.964560931371
 30
-5.0
 11
-17.060626546594072
 21
73.964560931371
 31
-5.0
  0
LINE
  5
AD
330
17
100
AcDbEntity
  8
0
100
AcDbLine
 10
78.97269201063517
 20
72.65666542532396
 30
-5.0
 11
83.97269201063517
 21
67.65666542532396
 31
-5.0
  0
LINE
  5
AE
330
17
100
AcDbEntity
  8
0
100
AcDbLine
 10
0.32603935680809215
 20
73.964560931371
 30
-5.0
 11
3.154777491283909
 21
76.78456093137099
 31
-5.0
  0
LINE
  5
AF
330
17
100
AcDbEntity
  8
0
100
AcDbLine
 10
78.97269201063517
 20
72.65666542532395
 30
-5.000000000000002
 11
54.60816202937313
 21
73.96456093137098
 31
-5.000000000000002
  0
LINE
  5
B0
330
17
100
AcDbEntity
  8
0
100
AcDbLine
 10
19.42225352620167
 20
76.784560931371
 30
-5.0
 11
3.154777491283914
 21
76.784560931371
 31
-5.0
  0
LINE
  5
B1
330
17
100
AcDbEntity
  8
0
100
AcDbLine
 10
20.614034501114112
 20
73.96456093137098
 30
-5.0
 11
54.608162029373126
 21
73.96456093137098
 31
-5.0
  0
LINE
  5
B2
330
17
100
AcDbEntity
  8
0
100
AcDbLine
 10
20.614034501114112
 20
73.964560931371
 30
-5.000000000000002
 11
19.422253526201654
 21
76.78456093137102
 31
-5.000000000000002
  0
CIRCLE
  5
B3
330
17
100
AcDbEntity
  8
0
100
AcDbCircle
 10
15.051092073119865
 20
71.71707236176904
 30
-5.0
 40
1.0
  0
CIRCLE
  5
B4
330
17
100
AcDbEntity
  8
0
100
AcDbCircle
 10
15.051092073119865
 20
71.71707236176904
 30
-5.0
 40
4.254801886792453
  0
CIRCLE
  5
B5
330
17
100
AcDbEntity
  8
0
100
AcDbCircle
 10
-58.40633879803675
 20
61.87823173327871
 30
-5.0
 40
4.0
  0
LINE
  5
B6
330
17
100
AcDbEntity
  8
0
100
AcDbLine
 10
100.90010731212007
 20
-72.84271236730669
 30
8.881784197001252e-16
 11
100.89983878675469
 21
-71.05354513490529
 31
8.881784197001252e-16
  0
LINE
  5
B7
330
17
100
AcDbEntity
  8
0
100
AcDbLine
 10
100.90010731212003
 20
-72.84271236730669
 30
0.0
 11
98.12740025778454
 21
-82.49695798642082
 31
0.0
  0
LINE
  5
B8
330
17
100
AcDbEntity
  8
0
100
AcDbLine
 10
84.49545598181697
 20
-94.45290829506068
 30
0.0
 11
98.12740025778453
 21
-82.49695798642082
 31
0.0
  0
LINE
  5
B9
330
17
100
AcDbEntity
  8
0
100
AcDbLine
 10
84.49545598181697
 20
-94.45290829506068
 30
0.0
 11
82.7201261823266
 21
-94.34084080534126
 31
0.0
  0
LINE
  5
BA
330
17
100
AcDbEntity
  8
0
100
AcDbLine
 10
80.47643917704615
 20
-93.60936666851526
 30
0.0
 11
82.7201261823266
 21
-94.34084080534129
 31
0.0
  0
LINE
  5
BB
330
17
100
AcDbEntity
  8
0
100
AcDbLine
 10
80.47643917704615
 20
-93.60936666851526
 30
0.0
 11
79.50381681066588
 21
-93.19522001237314
 31
0.0
  0
LINE
  5
BC
330
17
100
AcDbEntity
  8
0
100
AcDbLine
 10
78.38297501289296
 20
-92.55883004293845
 30
0.0
 11
79.50381681066588
 21
-93.19522001237314
 31
0.0
  0
LINE
  5
BD
330
17
100
AcDbEntity
  8
0
100
AcDbLine
 10
78.38297501289296
 20
-92.55883004293845
 30
-8.881784197001252e-16
 11
75.48044321249944
 21
-97.06607847505164
 31
-8.881784197001252e-16
  0
LINE
  5
BE
330
17
100
AcDbEntity
  8
0
100
AcDbLine
 10
66.75486701522105
 20
-107.10162065788089
 30
0.0
 11
75.48044321249944
 21
-97.06607847505164
 31
0.0
  0
LINE
  5
BF
330
17
100
AcDbEntity
  8
0
100
AcDbLine
 10
66.75486701522105
 20
-107.10162065788087
 30
0.0
 11
62.4067867408729
 21
-108.30160331562364
 31
0.0
  0
LINE
  5
C0
330
17
100
AcDbEntity
  8
0
100
AcDbLine
 10
55.369137289780525
 20
-107.28857504886685
 30
0.0
 11
62.4067867408729
 21
-108.30160331562364
 31
0.0
  0
LINE
  5
C1
330
17
100
AcDbEntity
  8
0
100
AcDbLine
 10
55.369137289780525
 20
-107.2885750488668
 30
0.0
 11
53.56962861311602
 21
-107.30070268759255
 31
0.0
  0
LINE
  5
C2
330
17
100
AcDbEntity
  8
0
100
AcDbLine
 10
44.647085349317706
 20
-95.01987545467873
 30
0.0
 11
53.56962861311558
 21
-107.30070268759292
 31
0.0
  0
LINE
  5
C3
330
17
100
AcDbEntity
  8
0
100
AcDbLine
 10
45.39358534013567
 20
-91.47148474984331
 30
0.0
 11
44.647085349317706
 21
-95.01987545467873
 31
0.0
  0
LINE
  5
C4
330
17
100
AcDbEntity
  8
0
100
AcDbLine
 10
35.46383933637293
 20
-80.44338456898925
 30
0.0
 11
45.39358534013617
 21
-91.47148474984289
 31
0.0
  0
LINE
  5
C5
330
17
100
AcDbEntity
  8
0
100
AcDbLine
 10
23.38852812989213
 20
-68.77775491821167
 30
0.0
 11
35.46383933637294
 21
-80.44338456898923
 31
0.0
  0
LINE
  5
C6
330
17
100
AcDbEntity
  8
0
100
AcDbLine
 10
23.38852812989213
 20
-68.77775491821167
 30
0.0
 11
4.129446600950602
 21
-61.39785730475387
 31
0.0
  0
LINE
  5
C7
330
17
100
AcDbEntity
  8
0
100
AcDbLine
 10
4.12944660095061
 20
-61.39785730475387
 30
0.0
 11
-13.42542095681547
 21
-63.03605735271663
 31
0.0
  0
LINE
  5
C8
330
17
100
AcDbEntity
  8
0
100
AcDbLine
 10
-13.425420956815469
 20
-63.03605735271664
 30
-8.881784197001252e-16
 11
-17.019371024514086
 21
-63.27698694701967
 31
-8.881784197001252e-16
  0
LINE
  5
C9
330
17
100
AcDbEntity
  8
0
100
AcDbLine
 10
-56.130193681783425
 20
-63.27698694701964
 30
0.0
 11
-17.019371024514086
 21
-63.27698694701964
 31
0.0
  0
LINE
  5
CA
330
17
100
AcDbEntity
  8
0
100
AcDbLine
 10
-56.130193681783425
 20
-63.27698694701966
 30
0.0
 11
-65.38704881862063
 21
-59.16336522866469
 31
0.0
  0
LINE
  5
CB
330
17
100
AcDbEntity
  8
0
100
AcDbLine
 10
-65.38704881862029
 20
-59.1633652286647
 30
0.0
 11
-64.6026483956359
 21
-43.57490398016162
 31
0.0
  0
LINE
  5
CC
330
17
100
AcDbEntity
  8
0
100
AcDbLine
 10
-64.40526636179357
 20
-38.107413065682834
 30
0.0
 11
-64.6026483956359
 21
-43.57490398016163
 31
0.0
  0
LINE
  5
CD
330
17
100
AcDbEntity
  8
0
100
AcDbLine
 10
-64.40526636179338
 20
-38.10741306568284
 30
0.0
 11
-64.0846798823351
 21
-24.379722173944234
 31
0.0
  0
LINE
  5
CE
330
17
100
AcDbEntity
  8
0
100
AcDbLine
 10
-64.08467988233514
 20
-24.37972217394423
 30
0.0
 11
-64.08467988233514
 21
12.379722173944234
 31
0.0
  0
LINE
  5
CF
330
17
100
AcDbEntity
  8
0
100
AcDbLine
 10
-64.08467988233629
 20
12.379722173944206
 30
0.0
 11
-64.40526636179357
 21
26.107413065682834
 31
0.0
  0
LINE
  5
D0
330
17
100
AcDbEntity
  8
0
100
AcDbLine
 10
-64.40526636179358
 20
26.107413065682838
 30
0.0
 11
-64.60264839563591
 21
31.574903980161636
 31
0.0
  0
LINE
  5
D1
330
17
100
AcDbEntity
  8
0
100
AcDbLine
 10
-64.60264839563624
 20
31.574903980161608
 30
0.0
 11
-65.38269103849294
 21
47.076762666173
 31
0.0
  0
LINE
  5
D2
330
17
100
AcDbEntity
  8
0
100
AcDbLine
 10
-65.38269103849295
 20
47.076762666173
 30
0.0
 11
-65.69668053600522
 21
51.77180489997673
 31
0.0
  0
LINE
  5
D3
330
17
100
AcDbEntity
  8
0
100
AcDbLine
 10
-65.69668053600314
 20
51.7718048999769
 30
0.0
 11
-66.80599036636752
 21
64.49973540500278
 31
0.0
  0
LINE
  5
D4
330
17
100
AcDbEntity
  8
0
100
AcDbLine
 10
-57.92760975060058
 20
71.21725428265545
 30
0.0
 11
-66.80599036636754
 21
64.49973540500278
 31
0.0
  0
LINE
  5
D5
330
17
100
AcDbEntity
  8
0
100
AcDbLine
 10
-20.699004541510718
 20
71.21725428265543
 30
0.0
 11
-57.92760975060058
 21
71.21725428265543
 31
0.0
  0
LINE
  5
D6
330
17
100
AcDbEntity
  8
0
100
AcDbLine
 10
-20.699004541510725
 20
71.21725428265543
 30
0.0
 11
-17.999076310397093
 21
77.21725428265543
 31
0.0
  0
LINE
  5
D7
330
17
100
AcDbEntity
  8
0
100
AcDbLine
 10
-0.6124104069949148
 20
77.21725428265543
 30
0.0
 11
-17.999076310397083
 21
77.21725428265543
 31
0.0
  0
LINE
  5
D8
330
17
100
AcDbEntity
  8
0
100
AcDbLine
 10
-0.6124104069949183
 20
77.21725428265543
 30
0.0
 11
1.948323950157807
 21
80.03725428265543
 31
0.0
  0
LINE
  5
D9
330
17
100
AcDbEntity
  8
0
100
AcDbLine
 10
18.956762211628572
 20
80.0372542826554
 30
0.0
 11
1.9483239501578105
 21
80.0372542826554
 31
0.0
  0
LINE
  5
DA
330
17
100
AcDbEntity
  8
0
100
AcDbLine
 10
18.956762211628575
 20
80.03725428265543
 30
0.0
 11
19.921256954804292
 21
77.21725428265543
 31
0.0
  0
LINE
  5
DB
330
17
100
AcDbEntity
  8
0
100
AcDbLine
 10
52.9818187573793
 20
77.21725428265543
 30
0.0
 11
19.92125695480429
 21
77.21725428265543
 31
0.0
  0
LINE
  5
DC
330
17
100
AcDbEntity
  8
0
100
AcDbLine
 10
52.9818187573793
 20
77.21725428265543
 30
0.0
 11
78.97269201063517
 21
77.25666542532396
 31
0.0
  0
LINE
  5
DD
330
17
100
AcDbEntity
  8
0
100
AcDbLine
 10
79.07269201063517
 20
77.25666542532397
 30
0.0
 11
78.97269201063517
 21
77.25666542532397
 31
0.0
  0
LINE
  5
DE
330
17
100
AcDbEntity
  8
0
100
AcDbLine
 10
88.57269201063517
 20
67.75666542532396
 30
0.0
 11
79.07269201063518
 21
77.25666542532396
 31
0.0
  0
LINE
  5
DF
330
17
100
AcDbEntity
  8
0
100
AcDbLine
 10
88.57269201063524
 20
67.75666542532399
 30
0.0
 11
94.9366439445241
 21
55.0287349202979
 31
0.0
  0
LINE
  5
E0
330
17
100
AcDbEntity
  8
0
100
AcDbLine
 10
96.39788859234692
 20
51.22006544116855
 30
0.0
 11
94.93664394452406
 21
55.02873492029788
 31
0.0
  0
LINE
  5
E1
330
17
100
AcDbEntity
  8
0
100
AcDbLine
 10
96.39788859234692
 20
51.22006544116855
 30
0.0
 11
100.89788169812016
 21
35.631604192665485
 31
0.0
  0
LINE
  5
E2
330
17
100
AcDbEntity
  8
0
100
AcDbLine
 10
101.81645841107922
 20
31.19631591698969
 30
0.0
 11
100.89788169812016
 21
35.631604192665485
 31
0.0
  0
LINE
  5
E3
330
17
100
AcDbEntity
  8
0
100
AcDbLine
 10
101.81645841107922
 20
31.196315916989693
 30
0.0
 11
104.14582611026728
 21
13.80965001358752
 31
0.0
  0
LINE
  5
E4
330
17
100
AcDbEntity
  8
0
100
AcDbLine
 10
104.45913550854051
 20
9.050000000000002
 30
0.0
 11
104.1458261102673
 21
13.809650013587525
 31
0.0
  0
LINE
  5
E5
330
17
100
AcDbEntity
  8
0
100
AcDbLine
 10
104.45913550854048
 20
9.050000000000002
 30
0.0
 11
104.45913550854048
 21
-9.049999999999999
 31
0.0
  0
LINE
  5
E6
330
17
100
AcDbEntity
  8
0
100
AcDbLine
 10
104.4591355085405
 20
-9.05
 30
0.0
 11
104.14582611026728
 21
-13.809650013587525
 31
0.0
  0
LINE
  5
E7
330
17
100
AcDbEntity
  8
0
100
AcDbLine
 10
101.81645841107922
 20
-31.196315916989697
 30
0.0
 11
104.14582611026728
 21
-13.809650013587525
 31
0.0
  0
LINE
  5
E8
330
17
100
AcDbEntity
  8
0
100
AcDbLine
 10
101.81645841107924
 20
-31.196315916989708
 30
0.0
 11
84.80790560476372
 21
-40.94278009232703
 31
0.0
  0
LINE
  5
E9
330
17
100
AcDbEntity
  8
0
100
AcDbLine
 10
94.20426786019277
 20
-48.82726419526685
 30
0.0
 11
84.8079056047637
 21
-40.94278009232702
 31
0.0
  0
CIRCLE
  5
EA
330
17
100
AcDbEntity
  8
0
100
AcDbCircle
 10
49.16724074406384
 20
-89.14631591698969
 30
0.0
 40
1.0
  0
CIRCLE
  5
EB
330
17
100
AcDbEntity
  8
0
100
AcDbCircle
 10
96.43114226067327
 20
-22.45298296528861
 30
0.0
 40
1.0
  0
CIRCLE
  5
EC
330
17
100
AcDbEntity
  8
0
100
AcDbCircle
 10
11.592034869640788
 20
-58.05163399462613
 30
0.0
 40
1.0
  0
CIRCLE
  5
ED
330
17
100
AcDbEntity
  8
0
100
AcDbCircle
 10
-57.336647982505006
 20
-35.7470771228133
 30
0.0
 40
1.0
  0
CIRCLE
  5
EE
330
17
100
AcDbEntity
  8
0
100
AcDbCircle
 10
85.20466797757962
 20
61.34270017281092
 30
0.0
 40
1.0
  0
CIRCLE
  5
EF
330
17
100
AcDbEntity
  8
0
100
AcDbCircle
 10
-58.40633879803674
 20
61.87823173327871
 30
0.0
 40
1.0
  0
CIRCLE
  5
F0
330
17
100
AcDbEntity
  8
0
100
AcDbCircle
 10
15.051092073119865
 20
71.71707236176904
 30
0.0
 40
4.254801886792453
  0
CIRCLE
  5
F1
330
17
100
AcDbEntity
  8
0
100
AcDbCircle
 10
15.051092073119865
 20
71.71707236176904
 30
0.0
 40
1.0
  0
LINE
  5
F2
330
17
100
AcDbEntity
  8
0
100
AcDbLine
 10
46.483314623772316
 20
-85.84481933563745
 30
0.0
 11
38.62819138311615
 21
-77.12082115903559
 31
0.0
  0
LINE
  5
F3
330
17
100
AcDbEntity
  8
0
100
AcDbLine
 10
24.573193699283422
 20
-64.38664342121173
 30
-8.881784197001252e-16
 11
38.62819138311616
 21
-77.1208211590356
 31
-8.881784197001252e-16
  0
LINE
  5
F4
330
17
100
AcDbEntity
  8
0
100
AcDbLine
 10
24.57319369928341
 20
-64.38664342121172
 30
-8.881784197001252e-16
 11
14.739238850236676
 21
-60.91492688924483
 31
-8.881784197001252e-16
  0
ARC
  5
F5
330
17
100
AcDbEntity
  8
0
100
AcDbCircle
 10
11.592034869640788
 20
-58.05163399462613
 30
0.0
 40
4.254801886792453
100
AcDbArc
 50
-402.2955938420764
 51
-176.59389385686495
  0
LINE
  5
F6
330
17
100
AcDbEntity
  8
0
100
AcDbLine
 10
7.344749082560305
 20
-58.30442350927552
 30
-8.881784197001252e-16
 11
4.802405504626824
 21
-57.40689079075719
 31
-8.881784197001252e-16
  0
LINE
  5
F7
330
17
100
AcDbEntity
  8
0
100
AcDbLine
 10
4.802405504626824
 20
-57.4068907907572
 30
0.0
 11
4.7058129162745885
 21
-57.4068907907572
 31
0.0
  0
LINE
  5
F8
330
17
100
AcDbEntity
  8
0
100
AcDbLine
 10
-12.810262303749136
 20
-58.272916415674025
 30
-8.881784197001252e-16
 11
4.70581291627459
 21
-57.40689079075719
 31
-8.881784197001252e-16
  0
LINE
  5
F9
330
17
100
AcDbEntity
  8
0
100
AcDbLine
 10
-16.91381552050257
 20
-61.24182672846511
 30
0.0
 11
-12.810262303749134
 21
-58.27291641567403
 31
0.0
  0
LINE
  5
FA
330
17
100
AcDbEntity
  8
0
100
AcDbLine
 10
-55.92816637833104
 20
-61.24182672846511
 30
0.0
 11
-16.913815520502563
 21
-61.24182672846511
 31
0.0
  0
LINE
  5
FB
330
17
100
AcDbEntity
  8
0
100
AcDbLine
 10
-60.80019539771902
 20
-59.07676266617299
 30
0.0
 11
-55.92816637833103
 21
-61.241826728465085
 31
0.0
  0
LINE
  5
FC
330
17
100
AcDbEntity
  8
0
100
AcDbLine
 10
-60.01579497473432
 20
-43.488301417669945
 30
0.0
 11
-60.80019539771998
 21
-59.07676266617297
 31
0.0
  0
LINE
  5
FD
330
17
100
AcDbEntity
  8
0
100
AcDbLine
 10
-59.86000326249163
 20
-39.172864218768865
 30
0.0
 11
-60.015794974734305
 21
-43.48830141766995
 31
0.0
  0
ARC
  5
FE
330
17
100
AcDbEntity
  8
0
100
AcDbCircle
 10
-57.336647982505006
 20
-35.7470771228133
 30
0.0
 40
4.254801886792453
100
AcDbArc
 50
-126.37449847563676
 51
123.49607670762964
  0
LINE
  5
FF
330
17
100
AcDbEntity
  8
0
100
AcDbLine
 10
-59.46710865941395
 20
-22.877766288651802
 30
0.0
 11
-59.684787555134506
 21
-32.19889735801793
 31
0.0
  0
LINE
  5
100
330
17
100
AcDbEntity
  8
0
100
AcDbLine
 10
-58.91634845210865
 20
-20.578742482872997
 30
-8.881784197001252e-16
 11
-59.467108659414144
 21
-22.87776628865172
 31
-8.881784197001252e-16
  0
LINE
  5
101
330
17
100
AcDbEntity
  8
0
100
AcDbLine
 10
-58.244477050131096
 20
-15.049999999999999
 30
0.0
 11
-58.916348452108664
 21
-20.57874248287299
 31
0.0
  0
LINE
  5
102
330
17
100
AcDbEntity
  8
0
100
AcDbLine
 10
-58.244477050131096
 20
3.050000000000001
 30
0.0
 11
-58.244477050131096
 21
-15.050000000000002
 31
0.0
  0
LINE
  5
103
330
17
100
AcDbEntity
  8
0
100
AcDbLine
 10
-58.24447705013109
 20
3.050000000000001
 30
0.0
 11
-58.91634845210865
 21
8.578742482872995
 31
0.0
  0
LINE
  5
104
330
17
100
AcDbEntity
  8
0
100
AcDbLine
 10
-59.467108659413825
 20
10.877766288651797
 30
0.0
 11
-58.916348452108664
 21
8.57874248287299
 31
0.0
  0
LINE
  5
105
330
17
100
AcDbEntity
  8
0
100
AcDbLine
 10
-59.825026473868846
 20
26.204005654035075
 30
0.0
 11
-59.46710865941397
 21
10.877766288651797
 31
0.0
  0
LINE
  5
106
330
17
100
AcDbEntity
  8
0
100
AcDbLine
 10
-59.825026473868846
 20
26.204005654035072
 30
0.0
 11
-60.0157949747343
 21
31.488301417669945
 31
0.0
  0
LINE
  5
107
330
17
100
AcDbEntity
  8
0
100
AcDbLine
 10
-60.80455317784673
 20
47.16336522866469
 30
0.0
 11
-60.01579497473465
 21
31.48830141766993
 31
0.0
  0
LINE
  5
108
330
17
100
AcDbEntity
  8
0
100
AcDbLine
 10
-60.80455317784673
 20
47.16336522866469
 30
0.0
 11
-61.10802206284041
 21
51.70109417494879
 31
0.0
  0
LINE
  5
109
330
17
100
AcDbEntity
  8
0
100
AcDbLine
 10
-61.767661193972195
 20
59.26962082966763
 30
-8.881784197001252e-16
 11
-61.10802206284087
 21
51.70109417494875
 31
-8.881784197001252e-16
  0
ARC
  5
10A
330
17
100
AcDbEntity
  8
0
100
AcDbCircle
 10
-58.40633879803674
 20
61.87823173327871
 30
0.0
 40
4.254801886792453
100
AcDbArc
 50
-142.18614636974678
 51
152.14826365488426
  0
LINE
  5
10B
330
17
100
AcDbEntity
  8
0
100
AcDbLine
 10
-62.21733189320272
 20
64.42902467997487
 30
-8.881784197001252e-16
 11
-62.16826222903012
 21
63.86601220284746
 31
-8.881784197001252e-16
  0
LINE
  5
10C
330
17
100
AcDbEntity
  8
0
100
AcDbLine
 10
-62.217331893202726
 20
64.42902467997486
 30
0.0
 11
-57.54449999016749
 21
67.964560931371
 31
0.0
  0
LINE
  5
10D
330
17
100
AcDbEntity
  8
0
100
AcDbLine
 10
-20.035700712327
 20
67.964560931371
 30
0.0
 11
-57.54449999016749
 21
67.964560931371
 31
0.0
  0
LINE
  5
10E
330
17
100
AcDbEntity
  8
0
100
AcDbLine
 10
-20.035700712327
 20
67.964560931371
 30
0.0
 11
-17.06062654659407
 21
73.964560931371
 31
0.0
  0
LINE
  5
10F
330
17
100
AcDbEntity
  8
0
100
AcDbLine
 10
0.3260393568080957
 20
73.964560931371
 30
0.0
 11
-17.060626546594072
 21
73.964560931371
 31
0.0
  0
LINE
  5
110
330
17
100
AcDbEntity
  8
0
100
AcDbLine
 10
0.32603935680809215
 20
73.964560931371
 30
0.0
 11
3.154777491283909
 21
76.78456093137099
 31
0.0
  0
LINE
  5
111
330
17
100
AcDbEntity
  8
0
100
AcDbLine
 10
19.42225352620167
 20
76.784560931371
 30
0.0
 11
3.154777491283914
 21
76.784560931371
 31
0.0
  0
LINE
  5
112
330
17
100
AcDbEntity
  8
0
100
AcDbLine
 10
20.614034501114112
 20
73.964560931371
 30
-1.7763568394002505e-15
 11
19.422253526201654
 21
76.78456093137102
 31
-1.7763568394002505e-15
  0
LINE
  5
113
330
17
100
AcDbEntity
  8
0
100
AcDbLine
 10
20.614034501114112
 20
73.96456093137098
 30
0.0
 11
54.608162029373126
 21
73.96456093137098
 31
0.0
  0
LINE
  5
114
330
17
100
AcDbEntity
  8
0
100
AcDbLine
 10
78.97269201063517
 20
72.65666542532395
 30
-1.7763568394002505e-15
 11
54.60816202937313
 21
73.96456093137098
 31
-1.7763568394002505e-15
  0
LINE
  5
115
330
17
100
AcDbEntity
  8
0
100
AcDbLine
 10
78.97269201063517
 20
72.65666542532396
 30
0.0
 11
83.97269201063517
 21
67.65666542532396
 31
0.0
  0
LINE
  5
116
330
17
100
AcDbEntity
  8
0
100
AcDbLine
 10
85.00462415054776
 20
65.59279682619646
 30
0.0
 11
83.97269201063517
 21
67.65666542532398
 31
0.0
  0
ARC
  5
117
330
17
100
AcDbEntity
  8
0
100
AcDbCircle
 10
85.20466797757962
 20
61.34270017281092
 30
0.0
 40
4.254801886792453
100
AcDbArc
 50
-267.3051873630135
 51
-39.56480621060405
  0
LINE
  5
118
330
17
100
AcDbEntity
  8
0
100
AcDbLine
 10
90.33664394452408
 20
54.928734920297885
 30
0.0
 11
88.48471446667614
 21
58.632601627514475
 31
0.0
  0
LINE
  5
119
330
17
100
AcDbEntity
  8
0
100
AcDbLine
 10
90.33664394452407
 20
54.928734920297885
 30
0.0
 11
91.79788859234692
 21
51.120065441168556
 31
0.0
  0
LINE
  5
11A
330
17
100
AcDbEntity
  8
0
100
AcDbLine
 10
91.79788859234694
 20
51.12006544116856
 30
0.0
 11
96.29788169812018
 21
35.5316041926655
 31
0.0
  0
LINE
  5
11B
330
17
100
AcDbEntity
  8
0
100
AcDbLine
 10
96.2978816981202
 20
35.5316041926655
 30
0.0
 11
97.21645841107924
 21
31.096315916989692
 31
0.0
  0
LINE
  5
11C
330
17
100
AcDbEntity
  8
0
100
AcDbLine
 10
97.21645841107924
 20
31.096315916989695
 30
0.0
 11
99.54582611026729
 21
13.709650013587524
 31
0.0
  0
LINE
  5
11D
330
17
100
AcDbEntity
  8
0
100
AcDbLine
 10
99.54582611026727
 20
13.709650013587524
 30
0.0
 11
99.85913550854049
 21
8.95
 31
0.0
  0
LINE
  5
11E
330
17
100
AcDbEntity
  8
0
100
AcDbLine
 10
99.8591355085405
 20
-8.95
 30
0.0
 11
99.8591355085405
 21
8.95
 31
0.0
  0
LINE
  5
11F
330
17
100
AcDbEntity
  8
0
100
AcDbLine
 10
99.54582611026727
 20
-13.709650013587524
 30
0.0
 11
99.8591355085405
 21
-8.949999999999996
 31
0.0
  0
LINE
  5
120
330
17
100
AcDbEntity
  8
0
100
AcDbLine
 10
98.84395927934676
 20
-18.94846400682199
 30
0.0
 11
99.54582611026729
 21
-13.709650013587524
 31
0.0
  0
ARC
  5
121
330
17
100
AcDbEntity
  8
0
100
AcDbCircle
 10
96.43114226067327
 20
-22.45298296528861
 30
0.0
 40
4.254801886792453
100
AcDbArc
 50
-304.5469200668877
 51
-70.71453546487646
  0
LINE
  5
122
330
17
100
AcDbEntity
  8
0
100
AcDbLine
 10
97.21645841107923
 20
-31.096315916989695
 30
0.0
 11
97.83639673085139
 21
-26.469025665496964
 31
0.0
  0
LINE
  5
123
330
17
100
AcDbEntity
  8
0
100
AcDbLine
 10
80.58375322324135
 20
-43.24044797921928
 30
-1.7763568394002505e-15
 11
97.21645841107926
 21
-31.096315916989703
 31
-1.7763568394002505e-15
  0
LINE
  5
124
330
17
100
AcDbEntity
  8
0
100
AcDbLine
 10
80.51534893763878
 20
-43.31287558156065
 30
0.0
 11
80.58375322324132
 21
-43.240447979219255
 31
0.0
  0
LINE
  5
125
330
17
100
AcDbEntity
  8
0
100
AcDbLine
 10
80.5153489376388
 20
-43.312875581560654
 30
0.0
 11
90.9941627599173
 21
-52.10564439500993
 31
0.0
  0
LINE
  5
126
330
17
100
AcDbEntity
  8
0
100
AcDbLine
 10
90.99416275991729
 20
-52.105644395009925
 30
0.0
 11
86.93725651609441
 21
-61.00619717963186
 31
0.0
  0
LINE
  5
127
330
17
100
AcDbEntity
  8
0
100
AcDbLine
 10
86.93725651609441
 20
-61.00619717963185
 30
0.0
 11
93.94708903193694
 21
-69.97837365135946
 31
0.0
  0
LINE
  5
128
330
17
100
AcDbEntity
  8
0
100
AcDbLine
 10
93.94708903193693
 20
-69.97837365135946
 30
0.0
 11
95.06214799818541
 21
-75.45953052104149
 31
0.0
  0
LINE
  5
129
330
17
100
AcDbEntity
  8
0
100
AcDbLine
 10
94.38490018409357
 20
-78.23832809144503
 30
0.0
 11
95.06214799818542
 21
-75.45953052104149
 31
0.0
  0
LINE
  5
12A
330
17
100
AcDbEntity
  8
0
100
AcDbLine
 10
80.82619930602168
 20
-89.9709079223494
 30
0.0
 11
94.38490018409357
 21
-78.23832809144504
 31
0.0
  0
LINE
  5
12B
330
17
100
AcDbEntity
  8
0
100
AcDbLine
 10
80.82619930602169
 20
-89.9709079223494
 30
0.0
 11
76.6529489801535
 21
-89.55575464237172
 31
0.0
  0
LINE
  5
12C
330
17
100
AcDbEntity
  8
0
100
AcDbLine
 10
76.65294898015348
 20
-89.55575464237172
 30
0.0
 11
75.93590027844948
 21
-89.95549596138308
 31
0.0
  0
LINE
  5
12D
330
17
100
AcDbEntity
  8
0
100
AcDbLine
 10
75.93590027844948
 20
-89.95549596138308
 30
0.0
 11
71.87951484002517
 21
-92.90263249238001
 31
0.0
  0
LINE
  5
12E
330
17
100
AcDbEntity
  8
0
100
AcDbLine
 10
62.70736719970311
 20
-102.89093808283594
 30
0.0
 11
71.87951484002518
 21
-92.90263249238001
 31
0.0
  0
LINE
  5
12F
330
17
100
AcDbEntity
  8
0
100
AcDbLine
 10
62.70736719970311
 20
-102.89093808283597
 30
0.0
 11
56.953585056819584
 21
-104.07333812910451
 31
0.0
  0
LINE
  5
130
330
17
100
AcDbEntity
  8
0
100
AcDbLine
 10
56.95358505681958
 20
-104.0733381291045
 30
0.0
 11
56.69174319116557
 21
-104.07510279053187
 31
0.0
  0
LINE
  5
131
330
17
100
AcDbEntity
  8
0
100
AcDbLine
 10
56.69174319116634
 20
-104.0751027905313
 30
0.0
 11
48.931907071744526
 21
-93.39460464994133
 31
0.0
  0
ARC
  5
132
330
17
100
AcDbEntity
  8
0
100
AcDbCircle
 10
49.16724074406384
 20
-89.14631591698969
 30
0.0
 40
4.254801886792453
100
AcDbArc
 50
-93.17065539556364
 51
129.10911927764158
  0
LINE
  5
133
330
17
100
AcDbEntity
  8
0
100
AcDbLine
 10
100.90010731212003
 20
-72.84271236730669
 30
-5.0
 11
100.90010731212003
 21
-72.84271236730669
 31
0.0
  0
LINE
  5
134
330
17
100
AcDbEntity
  8
0
100
AcDbLine
 10
84.8079056047637
 20
-40.94278009232701
 30
-5.0
 11
84.8079056047637
 21
-40.94278009232701
 31
0.0
  0
LINE
  5
135
330
17
100
AcDbEntity
  8
0
100
AcDbLine
 10
98.12740025778453
 20
-82.49695798642082
 30
-5.0
 11
98.12740025778453
 21
-82.49695798642082
 31
0.0
  0
LINE
  5
136
330
17
100
AcDbEntity
  8
0
100
AcDbLine
 10
101.81645841107922
 20
-31.196315916989693
 30
-5.0
 11
101.81645841107922
 21
-31.196315916989693
 31
0.0
  0
LINE
  5
137
330
17
100
AcDbEntity
  8
0
100
AcDbLine
 10
84.49545598181697
 20
-94.45290829506068
 30
-5.0
 11
84.49545598181697
 21
-94.45290829506068
 31
0.0
  0
LINE
  5
138
330
17
100
AcDbEntity
  8
0
100
AcDbLine
 10
104.14582611026727
 20
-13.809650013587524
 30
-5.0
 11
104.14582611026727
 21
-13.809650013587524
 31
0.0
  0
LINE
  5
139
330
17
100
AcDbEntity
  8
0
100
AcDbLine
 10
82.7201261823266
 20
-94.34084080534127
 30
-5.0
 11
82.7201261823266
 21
-94.34084080534127
 31
0.0
  0
LINE
  5
13A
330
17
100
AcDbEntity
  8
0
100
AcDbLine
 10
104.4591355085405
 20
-9.05
 30
-5.0
 11
104.4591355085405
 21
-9.05
 31
0.0
  0
LINE
  5
13B
330
17
100
AcDbEntity
  8
0
100
AcDbLine
 10
80.47643917704615
 20
-93.60936666851525
 30
-5.0
 11
80.47643917704615
 21
-93.60936666851525
 31
0.0
  0
LINE
  5
13C
330
17
100
AcDbEntity
  8
0
100
AcDbLine
 10
104.4591355085405
 20
9.05
 30
-5.0
 11
104.4591355085405
 21
9.05
 31
0.0
  0
LINE
  5
13D
330
17
100
AcDbEntity
  8
0
100
AcDbLine
 10
79.50381681066588
 20
-93.19522001237314
 30
-5.0
 11
79.50381681066588
 21
-93.19522001237314
 31
0.0
  0
LINE
  5
13E
330
17
100
AcDbEntity
  8
0
100
AcDbLine
 10
104.14582611026728
 20
13.809650013587525
 30
-5.0
 11
104.14582611026728
 21
13.809650013587525
 31
0.0
  0
LINE
  5
13F
330
17
100
AcDbEntity
  8
0
100
AcDbLine
 10
78.38297501289296
 20
-92.55883004293845
 30
-5.0
 11
78.38297501289296
 21
-92.55883004293845
 31
0.0
  0
LINE
  5
140
330
17
100
AcDbEntity
  8
0
100
AcDbLine
 10
101.81645841107922
 20
31.196315916989693
 30
-5.0
 11
101.81645841107922
 21
31.196315916989693
 31
0.0
  0
LINE
  5
141
330
17
100
AcDbEntity
  8
0
100
AcDbLine
 10
75.48044321249944
 20
-97.06607847505164
 30
-5.0
 11
75.48044321249944
 21
-97.06607847505164
 31
0.0
  0
LINE
  5
142
330
17
100
AcDbEntity
  8
0
100
AcDbLine
 10
100.89788169812016
 20
35.631604192665485
 30
-5.0
 11
100.89788169812016
 21
35.631604192665485
 31
0.0
  0
LINE
  5
143
330
17
100
AcDbEntity
  8
0
100
AcDbLine
 10
66.75486701522105
 20
-107.10162065788087
 30
-5.0
 11
66.75486701522105
 21
-107.10162065788087
 31
0.0
  0
LINE
  5
144
330
17
100
AcDbEntity
  8
0
100
AcDbLine
 10
96.39788859234692
 20
51.22006544116855
 30
-5.0
 11
96.39788859234692
 21
51.22006544116855
 31
0.0
  0
LINE
  5
145
330
17
100
AcDbEntity
  8
0
100
AcDbLine
 10
62.406786740872896
 20
-108.30160331562364
 30
-5.0
 11
62.406786740872896
 21
-108.30160331562364
 31
0.0
  0
LINE
  5
146
330
17
100
AcDbEntity
  8
0
100
AcDbLine
 10
94.93664394452406
 20
55.02873492029788
 30
-5.0
 11
94.93664394452406
 21
55.02873492029788
 31
0.0
  0
LINE
  5
147
330
17
100
AcDbEntity
  8
0
100
AcDbLine
 10
55.369137289780525
 20
-107.28857504886686
 30
-4.999999999999999
 11
55.369137289780525
 21
-107.28857504886686
 31
8.881784197001252e-16
  0
LINE
  5
148
330
17
100
AcDbEntity
  8
0
100
AcDbLine
 10
88.57269201063517
 20
67.75666542532396
 30
-5.0
 11
88.57269201063517
 21
67.75666542532396
 31
0.0
  0
LINE
  5
149
330
17
100
AcDbEntity
  8
0
100
AcDbLine
 10
53.56962861311602
 20
-107.30070268759259
 30
-5.0
 11
53.56962861311602
 21
-107.30070268759259
 31
0.0
  0
LINE
  5
14A
330
17
100
AcDbEntity
  8
0
100
AcDbLine
 10
79.07269201063517
 20
77.25666542532396
 30
-5.0
 11
79.07269201063517
 21
77.25666542532396
 31
0.0
  0
LINE
  5
14B
330
17
100
AcDbEntity
  8
0
100
AcDbLine
 10
44.647085349317706
 20
-95.01987545467873
 30
-5.0
 11
44.647085349317706
 21
-95.01987545467873
 31
0.0
  0
LINE
  5
14C
330
17
100
AcDbEntity
  8
0
100
AcDbLine
 10
78.97269201063517
 20
77.25666542532396
 30
-5.0
 11
78.97269201063517
 21
77.25666542532396
 31
0.0
  0
LINE
  5
14D
330
17
100
AcDbEntity
  8
0
100
AcDbLine
 10
45.39358534013567
 20
-91.47148474984331
 30
-5.0
 11
45.39358534013567
 21
-91.47148474984331
 31
0.0
  0
LINE
  5
14E
330
17
100
AcDbEntity
  8
0
100
AcDbLine
 10
52.9818187573793
 20
77.21725428265543
 30
-5.0
 11
52.9818187573793
 21
77.21725428265543
 31
0.0
  0
LINE
  5
14F
330
17
100
AcDbEntity
  8
0
100
AcDbLine
 10
35.46383933637293
 20
-80.44338456898923
 30
-5.0
 11
35.46383933637293
 21
-80.44338456898923
 31
0.0
  0
LINE
  5
150
330
17
100
AcDbEntity
  8
0
100
AcDbLine
 10
19.92125695480429
 20
77.21725428265543
 30
-5.0
 11
19.92125695480429
 21
77.21725428265543
 31
0.0
  0
LINE
  5
151
330
17
100
AcDbEntity
  8
0
100
AcDbLine
 10
23.388528129892123
 20
-68.77775491821167
 30
-5.0
 11
23.388528129892123
 21
-68.77775491821167
 31
0.0
  0
LINE
  5
152
330
17
100
AcDbEntity
  8
0
100
AcDbLine
 10
18.956762211628572
 20
80.03725428265543
 30
-5.0
 11
18.956762211628572
 21
80.03725428265543
 31
0.0
  0
LINE
  5
153
330
17
100
AcDbEntity
  8
0
100
AcDbLine
 10
4.12944660095061
 20
-61.39785730475387
 30
-5.0
 11
4.12944660095061
 21
-61.39785730475387
 31
0.0
  0
LINE
  5
154
330
17
100
AcDbEntity
  8
0
100
AcDbLine
 10
1.9483239501578105
 20
80.03725428265543
 30
-5.0
 11
1.9483239501578105
 21
80.03725428265543
 31
0.0
  0
LINE
  5
155
330
17
100
AcDbEntity
  8
0
100
AcDbLine
 10
-13.425420956815469
 20
-63.03605735271663
 30
-5.0
 11
-13.425420956815469
 21
-63.03605735271663
 31
0.0
  0
LINE
  5
156
330
17
100
AcDbEntity
  8
0
100
AcDbLine
 10
-0.6124104069949166
 20
77.21725428265543
 30
-5.0
 11
-0.6124104069949166
 21
77.21725428265543
 31
0.0
  0
LINE
  5
157
330
17
100
AcDbEntity
  8
0
100
AcDbLine
 10
-17.019371024514086
 20
-63.276986947019665
 30
-5.0
 11
-17.019371024514086
 21
-63.276986947019665
 31
0.0
  0
LINE
  5
158
330
17
100
AcDbEntity
  8
0
100
AcDbLine
 10
-17.999076310397083
 20
77.21725428265543
 30
-5.0
 11
-17.999076310397083
 21
77.21725428265543
 31
0.0
  0
LINE
  5
159
330
17
100
AcDbEntity
  8
0
100
AcDbLine
 10
-56.130193681783425
 20
-63.276986947019665
 30
-5.0
 11
-56.130193681783425
 21
-63.276986947019665
 31
0.0
  0
LINE
  5
15A
330
17
100
AcDbEntity
  8
0
100
AcDbLine
 10
-20.699004541510718
 20
71.21725428265543
 30
-5.0
 11
-20.699004541510718
 21
71.21725428265543
 31
0.0
  0
LINE
  5
15B
330
17
100
AcDbEntity
  8
0
100
AcDbLine
 10
-65.38704881862063
 20
-59.16336522866469
 30
-5.0
 11
-65.38704881862063
 21
-59.16336522866469
 31
0.0
  0
LINE
  5
15C
330
17
100
AcDbEntity
  8
0
100
AcDbLine
 10
-57.927609750600574
 20
71.21725428265543
 30
-5.0
 11
-57.927609750600574
 21
71.21725428265543
 31
0.0
  0
LINE
  5
15D
330
17
100
AcDbEntity
  8
0
100
AcDbLine
 10
-64.6026483956359
 20
-43.57490398016163
 30
-5.0
 11
-64.6026483956359
 21
-43.57490398016163
 31
0.0
  0
LINE
  5
15E
330
17
100
AcDbEntity
  8
0
100
AcDbLine
 10
-66.80599036636752
 20
64.49973540500278
 30
-5.0
 11
-66.80599036636752
 21
64.49973540500278
 31
0.0
  0
LINE
  5
15F
330
17
100
AcDbEntity
  8
0
100
AcDbLine
 10
-64.40526636179357
 20
-38.107413065682834
 30
-5.0
 11
-64.40526636179357
 21
-38.107413065682834
 31
0.0
  0
LINE
  5
160
330
17
100
AcDbEntity
  8
0
100
AcDbLine
 10
-65.6966805360052
 20
51.771804899976715
 30
-5.0
 11
-65.6966805360052
 21
51.771804899976715
 31
0.0
  0
LINE
  5
161
330
17
100
AcDbEntity
  8
0
100
AcDbLine
 10
-64.08467988233514
 20
-24.37972217394423
 30
-5.0
 11
-64.08467988233514
 21
-24.37972217394423
 31
0.0
  0
LINE
  5
162
330
17
100
AcDbEntity
  8
0
100
AcDbLine
 10
-65.38269103849294
 20
47.076762666173
 30
-5.0
 11
-65.38269103849294
 21
47.076762666173
 31
0.0
  0
LINE
  5
163
330
17
100
AcDbEntity
  8
0
100
AcDbLine
 10
-64.08467988233514
 20
12.379722173944232
 30
-5.0
 11
-64.08467988233514
 21
12.379722173944232
 31
0.0
  0
LINE
  5
164
330
17
100
AcDbEntity
  8
0
100
AcDbLine
 10
-64.6026483956359
 20
31.57490398016163
 30
-5.0
 11
-64.6026483956359
 21
31.57490398016163
 31
0.0
  0
LINE
  5
165
330
17
100
AcDbEntity
  8
0
100
AcDbLine
 10
-64.40526636179357
 20
26.107413065682834
 30
-5.0
 11
-64.40526636179357
 21
26.107413065682834
 31
0.0
  0
CIRCLE
  5
166
330
17
100
AcDbEntity
  8
0
100
AcDbCircle
 10
49.16724074406383
 20
-89.14631591698972
 30
-3.0
 40
4.0
  0
LINE
  5
167
330
17
100
AcDbEntity
  8
0
100
AcDbLine
 10
45.16724074406383
 20
-89.14631591698972
 30
-5.0
 11
45.16724074406383
 21
-89.14631591698972
 31
-3.0
  0
CIRCLE
  5
168
330
17
100
AcDbEntity
  8
0
100
AcDbCircle
 10
96.43114226067327
 20
-22.452982965288605
 30
-3.0
 40
4.0
  0
LINE
  5
169
330
17
100
AcDbEntity
  8
0
100
AcDbLine
 10
92.43114226067327
 20
-22.452982965288605
 30
-5.0
 11
92.43114226067327
 21
-22.452982965288605
 31
-3.0
  0
CIRCLE
  5
16A
330
17
100
AcDbEntity
  8
0
100
AcDbCircle
 10
11.592034869640782
 20
-58.05163399462613
 30
-3.0
 40
4.0
  0
LINE
  5
16B
330
17
100
AcDbEntity
  8
0
100
AcDbLine
 10
7.5920348696407824
 20
-58.05163399462613
 30
-5.0
 11
7.5920348696407824
 21
-58.05163399462613
 31
-3.0
  0
CIRCLE
  5
16C
330
17
100
AcDbEntity
  8
0
100
AcDbCircle
 10
-57.336647982505
 20
-35.747077122813295
 30
-3.0
 40
4.0
  0
LINE
  5
16D
330
17
100
AcDbEntity
  8
0
100
AcDbLine
 10
-61.336647982505
 20
-35.747077122813295
 30
-5.0
 11
-61.336647982505
 21
-35.747077122813295
 31
-3.0
  0
CIRCLE
  5
16E
330
17
100
AcDbEntity
  8
0
100
AcDbCircle
 10
85.20466797757963
 20
61.34270017281092
 30
-3.0
 40
4.0
  0
LINE
  5
16F
330
17
100
AcDbEntity
  8
0
100
AcDbLine
 10
81.20466797757963
 20
61.34270017281092
 30
-5.0
 11
81.20466797757963
 21
61.34270017281092
 31
-3.0
  0
LINE
  5
170
330
17
100
AcDbEntity
  8
0
100
AcDbLine
 10
46.48331462377232
 20
-85.84481933563744
 30
-5.000000000000002
 11
46.48331462377232
 21
-85.84481933563744
 31
-1.7763568394002505e-15
  0
LINE
  5
171
330
17
100
AcDbEntity
  8
0
100
AcDbLine
 10
38.628191383116146
 20
-77.12082115903559
 30
-5.0
 11
38.628191383116146
 21
-77.12082115903559
 31
0.0
  0
LINE
  5
172
330
17
100
AcDbEntity
  8
0
100
AcDbLine
 10
48.93190707174453
 20
-93.39460464994134
 30
-5.0
 11
48.93190707174453
 21
-93.39460464994134
 31
0.0
  0
LINE
  5
173
330
17
100
AcDbEntity
  8
0
100
AcDbLine
 10
24.573193699283408
 20
-64.38664342121172
 30
-5.0
 11
24.573193699283408
 21
-64.38664342121172
 31
0.0
  0
LINE
  5
174
330
17
100
AcDbEntity
  8
0
100
AcDbLine
 10
56.69174319116557
 20
-104.07510279053186
 30
-5.0
 11
56.69174319116557
 21
-104.07510279053186
 31
0.0
  0
LINE
  5
175
330
17
100
AcDbEntity
  8
0
100
AcDbLine
 10
14.739238850236674
 20
-60.91492688924483
 30
-5.0
 11
14.739238850236674
 21
-60.91492688924483
 31
0.0
  0
LINE
  5
176
330
17
100
AcDbEntity
  8
0
100
AcDbLine
 10
56.95358505681958
 20
-104.07333812910449
 30
-5.0
 11
56.95358505681958
 21
-104.07333812910449
 31
0.0
  0
LINE
  5
177
330
17
100
AcDbEntity
  8
0
100
AcDbLine
 10
7.344749082560307
 20
-58.304423509275516
 30
-5.0
 11
7.344749082560307
 21
-58.304423509275516
 31
0.0
  0
LINE
  5
178
330
17
100
AcDbEntity
  8
0
100
AcDbLine
 10
62.7073671997031
 20
-102.89093808283594
 30
-5.0
 11
62.7073671997031
 21
-102.89093808283594
 31
0.0
  0
LINE
  5
179
330
17
100
AcDbEntity
  8
0
100
AcDbLine
 10
4.802405504626824
 20
-57.40689079075719
 30
-5.0
 11
4.802405504626824
 21
-57.40689079075719
 31
0.0
  0
LINE
  5
17A
330
17
100
AcDbEntity
  8
0
100
AcDbLine
 10
71.87951484002517
 20
-92.90263249238001
 30
-5.0
 11
71.87951484002517
 21
-92.90263249238001
 31
0.0
  0
LINE
  5
17B
330
17
100
AcDbEntity
  8
0
100
AcDbLine
 10
4.7058129162745885
 20
-57.40689079075719
 30
-5.0
 11
4.7058129162745885
 21
-57.40689079075719
 31
0.0
  0
LINE
  5
17C
330
17
100
AcDbEntity
  8
0
100
AcDbLine
 10
75.93590027844948
 20
-89.95549596138308
 30
-5.0
 11
75.93590027844948
 21
-89.95549596138308
 31
0.0
  0
LINE
  5
17D
330
17
100
AcDbEntity
  8
0
100
AcDbLine
 10
-12.810262303749134
 20
-58.272916415674025
 30
-5.0
 11
-12.810262303749134
 21
-58.272916415674025
 31
0.0
  0
LINE
  5
17E
330
17
100
AcDbEntity
  8
0
100
AcDbLine
 10
76.65294898015348
 20
-89.55575464237172
 30
-5.0
 11
76.65294898015348
 21
-89.55575464237172
 31
0.0
  0
LINE
  5
17F
330
17
100
AcDbEntity
  8
0
100
AcDbLine
 10
-16.913815520502567
 20
-61.2418267284651
 30
-5.0
 11
-16.913815520502567
 21
-61.2418267284651
 31
0.0
  0
LINE
  5
180
330
17
100
AcDbEntity
  8
0
100
AcDbLine
 10
80.82619930602168
 20
-89.9709079223494
 30
-5.0
 11
80.82619930602168
 21
-89.9709079223494
 31
0.0
  0
LINE
  5
181
330
17
100
AcDbEntity
  8
0
100
AcDbLine
 10
-55.928166378331035
 20
-61.2418267284651
 30
-5.0
 11
-55.928166378331035
 21
-61.2418267284651
 31
0.0
  0
LINE
  5
182
330
17
100
AcDbEntity
  8
0
100
AcDbLine
 10
94.38490018409355
 20
-78.23832809144503
 30
-5.0
 11
94.38490018409355
 21
-78.23832809144503
 31
0.0
  0
LINE
  5
183
330
17
100
AcDbEntity
  8
0
100
AcDbLine
 10
-60.80019539771903
 20
-59.076762666173
 30
-5.0
 11
-60.80019539771903
 21
-59.076762666173
 31
0.0
  0
LINE
  5
184
330
17
100
AcDbEntity
  8
0
100
AcDbLine
 10
95.06214799818541
 20
-75.45953052104149
 30
-5.0
 11
95.06214799818541
 21
-75.45953052104149
 31
0.0
  0
LINE
  5
185
330
17
100
AcDbEntity
  8
0
100
AcDbLine
 10
-60.015794974734305
 20
-43.488301417669945
 30
-5.0
 11
-60.015794974734305
 21
-43.488301417669945
 31
0.0
  0
LINE
  5
186
330
17
100
AcDbEntity
  8
0
100
AcDbLine
 10
93.94708903193694
 20
-69.97837365135946
 30
-5.0
 11
93.94708903193694
 21
-69.97837365135946
 31
0.0
  0
LINE
  5
187
330
17
100
AcDbEntity
  8
0
100
AcDbLine
 10
-59.860003262491645
 20
-39.172864218768865
 30
-5.0
 11
-59.860003262491645
 21
-39.172864218768865
 31
0.0
  0
LINE
  5
188
330
17
100
AcDbEntity
  8
0
100
AcDbLine
 10
86.93725651609441
 20
-61.00619717963186
 30
-5.0
 11
86.93725651609441
 21
-61.00619717963186
 31
0.0
  0
LINE
  5
189
330
17
100
AcDbEntity
  8
0
100
AcDbLine
 10
-59.6847875551345
 20
-32.19889735801793
 30
-5.0
 11
-59.6847875551345
 21
-32.19889735801793
 31
0.0
  0
LINE
  5
18A
330
17
100
AcDbEntity
  8
0
100
AcDbLine
 10
90.99416275991729
 20
-52.105644395009925
 30
-5.0
 11
90.99416275991729
 21
-52.105644395009925
 31
0.0
  0
LINE
  5
18B
330
17
100
AcDbEntity
  8
0
100
AcDbLine
 10
-59.46710865941381
 20
-22.877766288651802
 30
-5.0
 11
-59.46710865941381
 21
-22.877766288651802
 31
0.0
  0
LINE
  5
18C
330
17
100
AcDbEntity
  8
0
100
AcDbLine
 10
80.51534893763879
 20
-43.312875581560654
 30
-5.0
 11
80.51534893763879
 21
-43.312875581560654
 31
0.0
  0
LINE
  5
18D
330
17
100
AcDbEntity
  8
0
100
AcDbLine
 10
-58.91634845210864
 20
-20.578742482872993
 30
-5.0
 11
-58.91634845210864
 21
-20.578742482872993
 31
0.0
  0
LINE
  5
18E
330
17
100
AcDbEntity
  8
0
100
AcDbLine
 10
80.58375322324133
 20
-43.24044797921926
 30
-5.0
 11
80.58375322324133
 21
-43.24044797921926
 31
0.0
  0
LINE
  5
18F
330
17
100
AcDbEntity
  8
0
100
AcDbLine
 10
-58.244477050131096
 20
-15.05
 30
-5.0
 11
-58.244477050131096
 21
-15.05
 31
0.0
  0
LINE
  5
190
330
17
100
AcDbEntity
  8
0
100
AcDbLine
 10
97.21645841107923
 20
-31.096315916989692
 30
-5.0
 11
97.21645841107923
 21
-31.096315916989692
 31
0.0
  0
LINE
  5
191
330
17
100
AcDbEntity
  8
0
100
AcDbLine
 10
-58.244477050131096
 20
3.0500000000000007
 30
-5.0
 11
-58.244477050131096
 21
3.0500000000000007
 31
0.0
  0
LINE
  5
192
330
17
100
AcDbEntity
  8
0
100
AcDbLine
 10
97.83639673085138
 20
-26.469025665496964
 30
-5.0
 11
97.83639673085138
 21
-26.469025665496964
 31
0.0
  0
LINE
  5
193
330
17
100
AcDbEntity
  8
0
100
AcDbLine
 10
-58.91634845210864
 20
8.578742482872995
 30
-5.0
 11
-58.91634845210864
 21
8.578742482872995
 31
0.0
  0
LINE
  5
194
330
17
100
AcDbEntity
  8
0
100
AcDbLine
 10
98.84395927934676
 20
-18.94846400682199
 30
-5.0
 11
98.84395927934676
 21
-18.94846400682199
 31
0.0
  0
LINE
  5
195
330
17
100
AcDbEntity
  8
0
100
AcDbLine
 10
-59.46710865941381
 20
10.8777662886518
 30
-5.0
 11
-59.46710865941381
 21
10.8777662886518
 31
0.0
  0
LINE
  5
196
330
17
100
AcDbEntity
  8
0
100
AcDbLine
 10
99.54582611026729
 20
-13.709650013587524
 30
-5.0
 11
99.54582611026729
 21
-13.709650013587524
 31
0.0
  0
LINE
  5
197
330
17
100
AcDbEntity
  8
0
100
AcDbLine
 10
-59.825026473868846
 20
26.204005654035072
 30
-5.0
 11
-59.825026473868846
 21
26.204005654035072
 31
0.0
  0
LINE
  5
198
330
17
100
AcDbEntity
  8
0
100
AcDbLine
 10
99.8591355085405
 20
-8.95
 30
-5.0
 11
99.8591355085405
 21
-8.95
 31
0.0
  0
LINE
  5
199
330
17
100
AcDbEntity
  8
0
100
AcDbLine
 10
-60.015794974734305
 20
31.488301417669945
 30
-5.0
 11
-60.015794974734305
 21
31.488301417669945
 31
0.0
  0
LINE
  5
19A
330
17
100
AcDbEntity
  8
0
100
AcDbLine
 10
99.8591355085405
 20
8.95
 30
-5.0
 11
99.8591355085405
 21
8.95
 31
0.0
  0
LINE
  5
19B
330
17
100
AcDbEntity
  8
0
100
AcDbLine
 10
-60.80455317784672
 20
47.16336522866469
 30
-5.0
 11
-60.80455317784672
 21
47.16336522866469
 31
0.0
  0
LINE
  5
19C
330
17
100
AcDbEntity
  8
0
100
AcDbLine
 10
99.54582611026729
 20
13.709650013587524
 30
-5.0
 11
99.54582611026729
 21
13.709650013587524
 31
0.0
  0
LINE
  5
19D
330
17
100
AcDbEntity
  8
0
100
AcDbLine
 10
-61.108022062840405
 20
51.701094174948786
 30
-5.0
 11
-61.108022062840405
 21
51.701094174948786
 31
0.0
  0
LINE
  5
19E
330
17
100
AcDbEntity
  8
0
100
AcDbLine
 10
97.21645841107923
 20
31.096315916989692
 30
-5.0
 11
97.21645841107923
 21
31.096315916989692
 31
0.0
  0
LINE
  5
19F
330
17
100
AcDbEntity
  8
0
100
AcDbLine
 10
-61.7676611939722
 20
59.26962082966763
 30
-5.000000000000001
 11
-61.7676611939722
 21
59.26962082966763
 31
-8.881784197001252e-16
  0
LINE
  5
1A0
330
17
100
AcDbEntity
  8
0
100
AcDbLine
 10
96.29788169812016
 20
35.53160419266549
 30
-5.0
 11
96.29788169812016
 21
35.53160419266549
 31
0.0
  0
LINE
  5
1A1
330
17
100
AcDbEntity
  8
0
100
AcDbLine
 10
-62.16826222903011
 20
63.866012202847465
 30
-5.0
 11
-62.16826222903011
 21
63.866012202847465
 31
0.0
  0
LINE
  5
1A2
330
17
100
AcDbEntity
  8
0
100
AcDbLine
 10
91.79788859234692
 20
51.120065441168556
 30
-5.0
 11
91.79788859234692
 21
51.120065441168556
 31
0.0
  0
LINE
  5
1A3
330
17
100
AcDbEntity
  8
0
100
AcDbLine
 10
-62.217331893202726
 20
64.42902467997486
 30
-5.0
 11
-62.217331893202726
 21
64.42902467997486
 31
0.0
  0
LINE
  5
1A4
330
17
100
AcDbEntity
  8
0
100
AcDbLine
 10
90.33664394452407
 20
54.928734920297885
 30
-5.0
 11
90.33664394452407
 21
54.928734920297885
 31
0.0
  0
LINE
  5
1A5
330
17
100
AcDbEntity
  8
0
100
AcDbLine
 10
-57.54449999016749
 20
67.964560931371
 30
-5.0
 11
-57.54449999016749
 21
67.964560931371
 31
0.0
  0
LINE
  5
1A6
330
17
100
AcDbEntity
  8
0
100
AcDbLine
 10
88.48471446667614
 20
58.632601627514475
 30
-5.0
 11
88.48471446667614
 21
58.632601627514475
 31
0.0
  0
LINE
  5
1A7
330
17
100
AcDbEntity
  8
0
100
AcDbLine
 10
-20.035700712327
 20
67.964560931371
 30
-5.0
 11
-20.035700712327
 21
67.964560931371
 31
0.0
  0
LINE
  5
1A8
330
17
100
AcDbEntity
  8
0
100
AcDbLine
 10
85.00462415054776
 20
65.59279682619646
 30
-4.999999999999999
 11
85.00462415054776
 21
65.59279682619646
 31
8.881784197001252e-16
  0
LINE
  5
1A9
330
17
100
AcDbEntity
  8
0
100
AcDbLine
 10
-17.060626546594072
 20
73.964560931371
 30
-5.0
 11
-17.060626546594072
 21
73.964560931371
 31
0.0
  0
LINE
  5
1AA
330
17
100
AcDbEntity
  8
0
100
AcDbLine
 10
83.97269201063517
 20
67.65666542532396
 30
-5.0
 11
83.97269201063517
 21
67.65666542532396
 31
0.0
  0
LINE
  5
1AB
330
17
100
AcDbEntity
  8
0
100
AcDbLine
 10
0.3260393568080957
 20
73.964560931371
 30
-5.0
 11
0.3260393568080957
 21
73.964560931371
 31
0.0
  0
LINE
  5
1AC
330
17
100
AcDbEntity
  8
0
100
AcDbLine
 10
78.97269201063517
 20
72.65666542532396
 30
-5.0
 11
78.97269201063517
 21
72.65666542532396
 31
0.0
  0
LINE
  5
1AD
330
17
100
AcDbEntity
  8
0
100
AcDbLine
 10
3.154777491283914
 20
76.78456093137099
 30
-5.0
 11
3.154777491283914
 21
76.78456093137099
 31
0.0
  0
LINE
  5
1AE
330
17
100
AcDbEntity
  8
0
100
AcDbLine
 10
54.608162029373126
 20
73.964560931371
 30
-5.0
 11
54.608162029373126
 21
73.964560931371
 31
0.0
  0
LINE
  5
1AF
330
17
100
AcDbEntity
  8
0
100
AcDbLine
 10
19.422253526201658
 20
76.784560931371
 30
-5.0
 11
19.422253526201658
 21
76.784560931371
 31
0.0
  0
LINE
  5
1B0
330
17
100
AcDbEntity
  8
0
100
AcDbLine
 10
20.614034501114112
 20
73.964560931371
 30
-5.0
 11
20.614034501114112
 21
73.964560931371
 31
0.0
  0
CIRCLE
  5
1B1
330
17
100
AcDbEntity
  8
0
100
AcDbCircle
 10
15.051092073119847
 20
71.71707236176904
 30
-5.0
 40
4.0
  0
LINE
  5
1B2
330
17
100
AcDbEntity
  8
0
100
AcDbLine
 10
10.796290186327413
 20
71.71707236176904
 30
-5.0
 11
10.796290186327413
 21
71.71707236176904
 31
0.0
  0
CIRCLE
  5
1B3
330
17
100
AcDbEntity
  8
0
100
AcDbCircle
 10
-58.40633879803675
 20
61.87823173327871
 30
-3.0
 40
4.0
  0
LINE
  5
1B4
330
17
100
AcDbEntity
  8
0
100
AcDbLine
 10
-62.40633879803675
 20
61.87823173327871
 30
-5.0
 11
-62.40633879803675
 21
61.87823173327871
 31
-3.0
  0
CIRCLE
  5
1B5
330
17
100
AcDbEntity
  8
0
100
AcDbCircle
 10
49.16724074406384
 20
-89.14631591698969
 30
-3.0
 40
1.0
  0
LINE
  5
1B6
330
17
100
AcDbEntity
  8
0
100
AcDbLine
 10
48.16724074406384
 20
-89.14631591698969
 30
-3.0
 11
48.16724074406384
 21
-89.14631591698969
 31
0.0
  0
CIRCLE
  5
1B7
330
17
100
AcDbEntity
  8
0
100
AcDbCircle
 10
96.43114226067327
 20
-22.45298296528861
 30
-3.0
 40
1.0
  0
LINE
  5
1B8
330
17
100
AcDbEntity
  8
0
100
AcDbLine
 10
95.43114226067327
 20
-22.45298296528861
 30
-3.0
 11
95.43114226067327
 21
-22.45298296528861
 31
0.0
  0
CIRCLE
  5
1B9
330
17
100
AcDbEntity
  8
0
100
AcDbCircle
 10
11.592034869640788
 20
-58.05163399462613
 30
-3.0
 40
1.0
  0
LINE
  5
1BA
330
17
100
AcDbEntity
  8
0
100
AcDbLine
 10
10.592034869640788
 20
-58.05163399462613
 30
-3.0
 11
10.592034869640788
 21
-58.05163399462613
 31
0.0
  0
CIRCLE
  5
1BB
330
17
100
AcDbEntity
  8
0
100
AcDbCircle
 10
-57.336647982505006
 20
-35.7470771228133
 30
-3.0
 40
1.0
  0
LINE
  5
1BC
330
17
100
AcDbEntity
  8
0
100
AcDbLine
 10
-58.336647982505006
 20
-35.7470771228133
 30
-3.0
 11
-58.336647982505006
 21
-35.7470771228133
 31
0.0
  0
CIRCLE
  5
1BD
330
17
100
AcDbEntity
  8
0
100
AcDbCircle
 10
85.20466797757962
 20
61.34270017281092
 30
-3.0
 40
1.0
  0
LINE
  5
1BE
330
17
100
AcDbEntity
  8
0
100
AcDbLine
 10
84.20466797757962
 20
61.34270017281092
 30
-3.0
 11
84.20466797757962
 21
61.34270017281092
 31
0.0
  0
CIRCLE
  5
1BF
330
17
100
AcDbEntity
  8
0
100
AcDbCircle
 10
-58.40633879803674
 20
61.87823173327871
 30
-3.0
 40
1.0
  0
LINE
  5
1C0
330
17
100
AcDbEntity
  8
0
100
AcDbLine
 10
-59.40633879803674
 20
61.87823173327871
 30
-3.0
 11
-59.40633879803674
 21
61.87823173327871
 31
0.0
  0
CIRCLE
  5
1C1
330
17
100
AcDbEntity
  8
0
100
AcDbCircle
 10
15.051092073119865
 20
71.71707236176904
 30
-3.0
 40
1.0
  0
LINE
  5
1C2
330
17
100
AcDbEntity
  8
0
100
AcDbLine
 10
14.051092073119865
 20
71.71707236176904
 30
-3.0
 11
14.051092073119865
 21
71.71707236176904
 31
0.0
  0
CIRCLE
  5
1C3
330
17
100
AcDbEntity
  8
0
100
AcDbCircle
 10
15.051092073119847
 20
71.71707236176904
 30
-3.0
 40
4.0
  0
LINE
  5
1C4
330
17
100
AcDbEntity
  8
0
100
AcDbLine
 10
11.051092073119847
 20
71.71707236176904
 30
-5.0
 11
11.051092073119847
 21
71.71707236176904
 31
-3.0
  0
ENDSEC
  0
SECTION
  2
OBJECTS
  0
DICTIONARY
  5
A
330
0
100
AcDbDictionary
281
1
  3
ACAD_COLOR
350
B
  3
ACAD_GROUP
350
C
  3
ACAD_LAYOUT
350
D
  3
ACAD_MATERIAL
350
E
  3
ACAD_MLEADERSTYLE
350
F
  3
ACAD_MLINESTYLE
350
10
  3
ACAD_PLOTSETTINGS
350
11
  3
ACAD_PLOTSTYLENAME
350
12
  3
ACAD_SCALELIST
350
14
  3
ACAD_TABLESTYLE
350
15
  3
ACAD_VISUALSTYLE
350
16
  3
EZDXF_META
350
2D
  0
DICTIONARY
  5
B
330
A
100
AcDbDictionary
281
1
  0
DICTIONARY
  5
C
330
A
100
AcDbDictionary
281
1
  0
DICTIONARY
  5
D
330
A
100
AcDbDictionary
281
1
  3
Model
350
1A
  3
Layout1
350
1E
  0
DICTIONARY
  5
E
330
A
100
AcDbDictionary
281
1
  3
ByBlock
350
1F
  3
ByLayer
350
20
  3
Global
350
21
  0
DICTIONARY
  5
F
330
A
100
AcDbDictionary
281
1
  3
Standard
350
2C
  0
DICTIONARY
  5
10
330
A
100
AcDbDictionary
281
1
  3
Standard
350
22
  0
DICTIONARY
  5
11
330
A
100
AcDbDictionary
281
1
  0
ACDBDICTIONARYWDFLT
  5
12
330
A
100
AcDbDictionary
281
1
  3
Normal
350
13
100
AcDbDictionaryWithDefault
340
13
  0
ACDBPLACEHOLDER
  5
13
330
12
  0
DICTIONARY
  5
14
330
A
100
AcDbDictionary
281
1
  0
DICTIONARY
  5
15
330
A
100
AcDbDictionary
281
1
  0
DICTIONARY
  5
16
330
A
100
AcDbDictionary
281
1
  0
LAYOUT
  5
1A
330
D
100
AcDbPlotSettings
  1

  2
Adobe PDF
  4
A3
  6

 40
7.5
 41
20.0
 42
7.5
 43
20.0
 44
420.0
 45
297.0
 46
0.0
 47
0.0
 48
0.0
 49
0.0
140
0.0
141
0.0
142
1.0
143
1.0
 70
1024
 72
1
 73
1
 74
5
  7

 75
16
 76
0
 77
2
 78
300
147
1.0
148
0.0
149
0.0
100
AcDbLayout
  1
Model
 70
1
 71
0
 10
0.0
 20
0.0
 11
420.0
 21
297.0
 12
0.0
 22
0.0
 32
0.0
 14
1e+20
 24
1e+20
 34
1e+20
 15
-1e+20
 25
-1e+20
 35
-1e+20
146
0.0
 13
0.0
 23
0.0
 33
0.0
 16
1.0
 26
0.0
 36
0.0
 17
0.0
 27
1.0
 37
0.0
 76
1
330
17
  0
LAYOUT
  5
1E
330
D
100
AcDbPlotSettings
  1

  2
Adobe PDF
  4
A3
  6

 40
7.5
 41
20.0
 42
7.5
 43
20.0
 44
420.0
 45
297.0
 46
0.0
 47
0.0
 48
0.0
 49
0.0
140
0.0
141
0.0
142
1.0
143
1.0
 70
0
 72
1
 73
1
 74
5
  7

 75
16
 76
0
 77
2
 78
300
147
1.0
148
0.0
149
0.0
100
AcDbLayout
  1
Layout1
 70
1
 71
1
 10
0.0
 20
0.0
 11
420.0
 21
297.0
 12
0.0
 22
0.0
 32
0.0
 14
1e+20
 24
1e+20
 34
1e+20
 15
-1e+20
 25
-1e+20
 35
-1e+20
146
0.0
 13
0.0
 23
0.0
 33
0.0
 16
1.0
 26
0.0
 36
0.0
 17
0.0
 27
1.0
 37
0.0
 76
1
330
1B
  0
MATERIAL
  5
1F
102
{ACAD_REACTORS
330
E
102
}
330
E
100
AcDbMaterial
  1
ByBlock
  2

 70
0
 40
1.0
 71
1
 41
1.0
 91
-1023410177
 42
1.0
 72
1
  3

 73
1
 74
1
 75
1
 44
0.5
 73
0
 45
1.0
 46
1.0
 77
1
  4

 78
1
 79
1
170
1
 48
1.0
171
1
  6

172
1
173
1
174
1
140
1.0
141
1.0
175
1
  7

176
1
177
1
178
1
143
1.0
179
1
  8

270
1
271
1
272
1
145
1.0
146
1.0
273
1
  9

274
1
275
1
276
1
 42
1.0
 72
1
  3

 73
1
 74
1
 75
1
 94
63
  0
MATERIAL
  5
20
102
{ACAD_REACTORS
330
E
102
}
330
E
100
AcDbMaterial
  1
ByLayer
  2

 70
0
 40
1.0
 71
1
 41
1.0
 91
-1023410177
 42
1.0
 72
1
  3

 73
1
 74
1
 75
1
 44
0.5
 73
0
 45
1.0
 46
1.0
 77
1
  4

 78
1
 79
1
170
1
 48
1.0
171
1
  6

172
1
173
1
174
1
140
1.0
141
1.0
175
1
  7

176
1
177
1
178
1
143
1.0
179
1
  8

270
1
271
1
272
1
145
1.0
146
1.0
273
1
  9

274
1
275
1
276
1
 42
1.0
 72
1
  3

 73
1
 74
1
 75
1
 94
63
  0
MATERIAL
  5
21
102
{ACAD_REACTORS
330
E
102
}
330
E
100
AcDbMaterial
  1
Global
  2

 70
0
 40
1.0
 71
1
 41
1.0
 91
-1023410177
 42
1.0
 72
1
  3

 73
1
 74
1
 75
1
 44
0.5
 73
0
 45
1.0
 46
1.0
 77
1
  4

 78
1
 79
1
170
1
 48
1.0
171
1
  6

172
1
173
1
174
1
140
1.0
141
1.0
175
1
  7

176
1
177
1
178
1
143
1.0
179
1
  8

270
1
271
1
272
1
145
1.0
146
1.0
273
1
  9

274
1
275
1
276
1
 42
1.0
 72
1
  3

 73
1
 74
1
 75
1
 94
63
  0
MLINESTYLE
  5
22
102
{ACAD_REACTORS
330
10
102
}
330
10
100
AcDbMlineStyle
  2
Standard
 70
0
  3

 62
256
 51
90.0
 52
90.0
 71
2
 49
0.5
 62
256
  6
BYLAYER
 49
-0.5
 62
256
  6
BYLAYER
  0
MLEADERSTYLE
  5
2C
102
{ACAD_REACTORS
330
F
102
}
330
F
100
AcDbMLeaderStyle
179
2
170
2
171
1
172
0
 90
2
 40
0.0
 41
0.0
173
1
 91
-1056964608
 92
-2
290
1
 42
2.0
291
1
 43
8.0
  3
Standard
 44
4.0
300

342
29
174
1
175
1
176
0
178
1
 93
-1056964608
 45
4.0
292
0
297
0
 46
4.0
 94
-1056964608
 47
1.0
 49
1.0
140
1.0
294
1
141
0.0
177
0
142
1.0
295
0
296
0
143
3.75
271
0
272
9
273
9
  0
DICTIONARY
  5
2D
330
A
100
AcDbDictionary
281
1
  3
CREATED_BY_EZDXF
350
2E
  3
WRITTEN_BY_EZDXF
350
1C7
  0
DICTIONARYVAR
  5
2E
330
2D
100
DictionaryVariables
280
0
  1
0.16.4 @ 2021-12-12T19:02:06.626990+00:00
  0
DICTIONARYVAR
  5
1C7
330
2D
100
DictionaryVariables
280
0
  1
0.16.4 @ 2021-12-12T19:02:06.646021+00:00
  0
ENDSEC
  0
EOF
